<?xml version="1.0" encoding="UTF-8"?>
<svg version="1.1" xmlns="http://www.w3.org/2000/svg" width="512" height="512">
<path d="M0 0 C3.74313279 2.85839231 4.74148621 5.54099652 5.75 10.0625 C5.99234375 11.10535156 6.2346875 12.14820313 6.484375 13.22265625 C7 16 7 16 7 19 C8.29744141 19.02126953 8.29744141 19.02126953 9.62109375 19.04296875 C49.71782901 20.56147357 93.81564222 37.02171764 122.6875 65.625 C125.50246865 68.15917377 127.3826593 68.23285618 131.125 68.0625 C132.3934375 67.99095703 132.3934375 67.99095703 133.6875 67.91796875 C136 68 136 68 139.125 69.875 C141.16752719 73.27921198 141.11094278 73.99313206 140.8125 77.75 C140.67262547 80.83175183 140.63694607 82.44430521 142.33984375 85.05078125 C143.69667174 86.47975143 145.07248626 87.89079889 146.4609375 89.2890625 C173.74347821 118.41842135 188.88675871 162.64692024 190 202 C190.88042969 202.10957031 191.76085937 202.21914062 192.66796875 202.33203125 C193.82941406 202.49058594 194.99085938 202.64914063 196.1875 202.8125 C197.91033203 203.03873047 197.91033203 203.03873047 199.66796875 203.26953125 C203.04923277 204.01079312 205.21253616 204.97692295 208 207 C209.56471233 210.12942465 209.69701958 213.61082223 209 217 C206.14160769 220.74313279 203.45900348 221.74148621 198.9375 222.75 C197.89464844 222.99234375 196.85179687 223.2346875 195.77734375 223.484375 C193 224 193 224 190 224 C189.98582031 224.86496094 189.97164063 225.72992188 189.95703125 226.62109375 C188.43852643 266.71782901 171.97828236 310.81564222 143.375 339.6875 C140.84082623 342.50246865 140.76714382 344.3826593 140.9375 348.125 C140.98519531 348.970625 141.03289062 349.81625 141.08203125 350.6875 C141 353 141 353 139.125 356.125 C135.72078802 358.16752719 135.00686794 358.11094278 131.25 357.8125 C128.16824817 357.67262547 126.55569479 357.63694607 123.94921875 359.33984375 C122.52024857 360.69667174 121.10920111 362.07248626 119.7109375 363.4609375 C90.58157865 390.74347821 46.35307976 405.88675871 7 407 C6.89042969 407.88042969 6.78085937 408.76085937 6.66796875 409.66796875 C6.50941406 410.82941406 6.35085938 411.99085938 6.1875 413.1875 C5.96126953 414.91033203 5.96126953 414.91033203 5.73046875 416.66796875 C4.98920688 420.04923277 4.02307705 422.21253616 2 425 C-1.12942465 426.56471233 -4.61082223 426.69701958 -8 426 C-11.74313279 423.14160769 -12.74148621 420.45900348 -13.75 415.9375 C-13.99234375 414.89464844 -14.2346875 413.85179687 -14.484375 412.77734375 C-15 410 -15 410 -15 407 C-15.91136719 406.97421875 -16.82273438 406.9484375 -17.76171875 406.921875 C-57.46752114 405.18351151 -101.47527517 389.35894017 -130.125 360.9375 C-132.39462451 358.85740572 -133.44543718 358.05554173 -136.53515625 357.74609375 C-138.26518513 357.83017468 -139.99455233 357.92971541 -141.72265625 358.046875 C-144 358 -144 358 -147.125 356.125 C-149.17678627 352.70535622 -149.09313542 352.06924123 -148.75 348.3125 C-148.60916099 345.09198139 -148.62509672 343.53585651 -150.4921875 340.8671875 C-152.02283267 339.30290178 -153.56156321 337.74651208 -155.10546875 336.1953125 C-180.71788022 309.26230317 -197.86968442 263.95560174 -198.125 227.0625 C-198.08375 226.051875 -198.0425 225.04125 -198 224 C-198.88042969 223.89042969 -199.76085937 223.78085937 -200.66796875 223.66796875 C-201.82941406 223.50941406 -202.99085938 223.35085938 -204.1875 223.1875 C-205.91033203 222.96126953 -205.91033203 222.96126953 -207.66796875 222.73046875 C-211.04923277 221.98920688 -213.21253616 221.02307705 -216 219 C-217.56516118 215.86967764 -217.540337 212.40926916 -217 209 C-215.38088475 205.86438947 -214.33997395 205.11741368 -210.96875 203.953125 C-209.8240625 203.72109375 -208.679375 203.4890625 -207.5 203.25 C-206.3553125 203.00765625 -205.210625 202.7653125 -204.03125 202.515625 C-201 202 -201 202 -198 202 C-197.98582031 201.13503906 -197.97164062 200.27007812 -197.95703125 199.37890625 C-196.45655611 159.75825182 -180.26126789 115.42626803 -151.9375 86.875 C-149.85740572 84.60537549 -149.05554173 83.55456282 -148.74609375 80.46484375 C-148.83017468 78.73481487 -148.92971541 77.00544767 -149.046875 75.27734375 C-149 73 -149 73 -147.125 69.875 C-143.72078802 67.83247281 -143.00686794 67.88905722 -139.25 68.1875 C-136.16824817 68.32737453 -134.55569479 68.36305393 -131.94921875 66.66015625 C-130.52024857 65.30332826 -129.10920111 63.92751374 -127.7109375 62.5390625 C-98.58157865 35.25652179 -54.35307976 20.11324129 -15 19 C-14.89042969 18.11957031 -14.78085938 17.23914063 -14.66796875 16.33203125 C-14.50941406 15.17058594 -14.35085937 14.00914063 -14.1875 12.8125 C-13.96126953 11.08966797 -13.96126953 11.08966797 -13.73046875 9.33203125 C-12.98920688 5.95076723 -12.02307705 3.78746384 -10 1 C-6.87057535 -0.56471233 -3.38917777 -0.69701958 0 0 Z " fill="#423C33" transform="translate(260,43)"/>
<path d="M0 0 C0.99 0.495 0.99 0.495 2 1 C2.63346154 3.37126538 3.13777913 5.67712302 3.5847168 8.08544922 C3.72982193 8.82916779 3.87492706 9.57288635 4.02442932 10.33914185 C4.50755499 12.82614939 4.97829417 15.3153432 5.44921875 17.8046875 C5.7875245 19.55802418 6.12663477 21.31120579 6.46650696 23.0642395 C7.36736706 27.72160692 8.25798031 32.38087628 9.14630127 37.04064941 C10.02379028 41.63620986 10.90938022 46.23020439 11.79492188 50.82421875 C11.96788347 51.72204197 12.14084507 52.61986519 12.31904793 53.54489517 C13.87431607 61.61776532 15.43062392 69.69043473 16.98968506 77.76257324 C17.66200891 81.24456598 18.33139489 84.72710525 18.99859619 88.21008301 C19.78596648 92.31701438 20.58231573 96.42210951 21.385355 100.52600479 C21.67937902 102.03622964 21.97035372 103.54705188 22.25803185 105.05849838 C22.65315784 107.13200276 23.05922527 109.20307889 23.46801758 111.27392578 C23.6926619 112.4343338 23.91730621 113.59474182 24.14875793 114.79031372 C25.04942437 118.18635913 26.2243466 120.97082028 28 124 C30.53714275 125.37932828 30.53714275 125.37932828 34 126 C34.82902832 126.19513184 35.65805664 126.39026367 36.51220703 126.59130859 C39.68862971 127.32614066 42.87316567 128.01090647 46.0625 128.6875 C47.29145996 128.94950195 48.52041992 129.21150391 49.78662109 129.48144531 C60.28732296 131.70137573 70.82607912 133.70269781 81.37658691 135.6697998 C96.38023412 138.46852783 111.34850615 141.43443753 126.3125 144.4375 C128.01179657 144.77847717 128.01179657 144.77847717 129.74542236 145.12634277 C136.1641472 146.41492254 142.58236588 147.70599909 149 149 C149 149.66 149 150.32 149 151 C132.6679636 154.3396965 116.33492151 157.67444132 100 161 C99.21212097 161.16040771 98.42424194 161.32081543 97.61248779 161.48608398 C76.83985695 165.71273443 76.83985695 165.71273443 66.4375 167.5 C63.62356034 167.99211453 60.81157484 168.49456128 58 169 C56.52176758 169.26248535 56.52176758 169.26248535 55.01367188 169.53027344 C51.73371679 170.12295323 48.46068834 170.74611171 45.1875 171.375 C44.14198975 171.55998047 43.09647949 171.74496094 42.01928711 171.93554688 C36.18346558 173.00596065 36.18346558 173.00596065 31.55078125 176.4765625 C31.03902344 177.30929687 30.52726563 178.14203125 30 179 C29.33806641 179.44150391 28.67613281 179.88300781 27.99414062 180.33789062 C25.43363071 182.47206687 25.19635031 183.87661888 24.54296875 187.1171875 C24.32157227 188.17824707 24.10017578 189.23930664 23.87207031 190.33251953 C23.64616211 191.50153809 23.42025391 192.67055664 23.1875 193.875 C22.93452148 195.11749512 22.68154297 196.35999023 22.42089844 197.64013672 C21.58693844 201.75496725 20.78955827 205.87644712 20 210 C19.8689386 210.68376709 19.7378772 211.36753418 19.60284424 212.07202148 C18.35414228 218.5998968 17.12135902 225.13073328 15.90283203 231.66430664 C13.24143884 245.9041654 10.41286312 260.10939345 7.5625 274.3125 C7.22152283 276.01179657 7.22152283 276.01179657 6.87365723 277.74542236 C5.58507746 284.1641472 4.29400091 290.58236588 3 297 C2.34 297 1.68 297 1 297 C-0.85910746 287.93850924 -2.71294589 278.8759452 -4.5625 269.8125 C-4.76840696 268.80357004 -4.76840696 268.80357004 -4.97847366 267.77425766 C-8.40597087 250.97382726 -11.79305428 234.16867746 -14.9375 217.3125 C-15.21120159 215.85080333 -15.48504325 214.38913288 -15.7590332 212.92749023 C-15.95558754 211.87888573 -15.95558754 211.87888573 -16.15611267 210.80909729 C-17.65343697 202.82425359 -19.15858807 194.84173758 -20.75 186.875 C-20.9368335 185.89571533 -21.12366699 184.91643066 -21.31616211 183.9074707 C-21.49542236 183.02792725 -21.67468262 182.14838379 -21.859375 181.2421875 C-22.00858398 180.4879248 -22.15779297 179.73366211 -22.31152344 178.95654297 C-23.18582841 176.47190466 -23.83499922 175.53363551 -26 174 C-28.4821695 173.31609173 -30.83407135 172.79147112 -33.359375 172.3515625 C-34.09148193 172.21406082 -34.82358887 172.07655914 -35.57788086 171.93489075 C-37.14908563 171.64097317 -38.72127689 171.35229012 -40.29431152 171.06832886 C-44.42954167 170.32179001 -48.55790459 169.53870915 -52.6875 168.76171875 C-53.50345642 168.60939285 -54.31941284 168.45706696 -55.16009521 168.30012512 C-61.38530079 167.13336291 -67.57215238 165.83403595 -73.75 164.4375 C-82.67145936 162.4408548 -91.63612047 160.72330149 -100.625 159.0625 C-111.57790976 157.03331862 -122.51862054 154.95570354 -133.4375 152.75 C-135.31332764 152.38080444 -135.31332764 152.38080444 -137.22705078 152.00415039 C-138.93803955 151.65404907 -138.93803955 151.65404907 -140.68359375 151.296875 C-142.19264282 150.99281738 -142.19264282 150.99281738 -143.73217773 150.68261719 C-144.48055908 150.45735352 -145.22894043 150.23208984 -146 150 C-146.33 149.34 -146.66 148.68 -147 148 C-136.91899478 145.97253277 -126.83728477 143.94859629 -116.75505066 141.92724991 C-115.1315502 141.60172577 -113.5080658 141.2761215 -111.88459778 140.95043564 C-70.62938762 132.67426571 -70.62938762 132.67426571 -50.4855957 129.04272461 C-36.23724329 127.01681526 -36.23724329 127.01681526 -25 119 C-24.34 118.34 -23.68 117.68 -23 117 C-22.27214401 114.38560706 -22.27214401 114.38560706 -21.73046875 111.21484375 C-21.48780273 109.93061523 -21.24513672 108.64638672 -20.99511719 107.32324219 C-20.86472046 106.61470093 -20.73432373 105.90615967 -20.59997559 105.17614746 C-19.86378568 101.1805906 -19.1001688 97.19024058 -18.33984375 93.19921875 C-18.16707916 92.2891507 -17.99431458 91.37908264 -17.8163147 90.44143677 C-16.17904849 81.85323049 -14.47203168 73.2793344 -12.75390625 64.70703125 C-12.53946145 63.63696744 -12.53946145 63.63696744 -12.32068443 62.54528618 C-11.15391633 56.72527081 -9.98465748 50.90575641 -8.81518173 45.08628464 C-7.83926456 40.22961141 -6.86416941 35.37277446 -5.890625 30.515625 C-5.69413581 29.53546008 -5.69413581 29.53546008 -5.49367714 28.53549385 C-3.59098101 19.03647012 -1.73266743 9.53160896 0 0 Z " fill="#F09B99" transform="translate(252,109)"/>
<path d="M0 0 C2.86254883 1.67407227 2.86254883 1.67407227 5.95703125 3.81640625 C6.50485764 4.19232407 7.05268402 4.56824188 7.61711121 4.95555115 C9.35432971 6.15022331 11.0834071 7.35610575 12.8125 8.5625 C13.99362018 9.37770769 15.17525579 10.19216914 16.35742188 11.00585938 C19.24429804 12.99530287 22.12398783 14.99487284 25 17 C-0.37654902 42.60710038 -38.38489091 57.74703583 -74 61 C-75.32 61 -76.64 61 -78 61 C-77.30175125 53.76705374 -76.14566134 46.692509 -74.75 39.5625 C-74.55792969 38.47517578 -74.36585938 37.38785156 -74.16796875 36.26757812 C-73.96300781 35.23181641 -73.75804687 34.19605469 -73.546875 33.12890625 C-73.28148926 31.72233765 -73.28148926 31.72233765 -73.01074219 30.28735352 C-72 28 -72 28 -69.67919922 26.74243164 C-67.31770223 26.08803832 -64.98738375 25.47754688 -62.5859375 24.9921875 C-42.78581375 20.77430779 -22.14706796 13.62730061 -6.74609375 -0.06640625 C-4.16037589 -1.44892654 -2.79311113 -0.80550581 0 0 Z " fill="#BEE8FB" transform="translate(348,372)"/>
<path d="M0 0 C4.83401796 4.56505355 8.18084136 9.96896684 11.8125 15.5 C12.51826172 16.54542969 13.22402344 17.59085938 13.95117188 18.66796875 C14.61310547 19.67472656 15.27503906 20.68148437 15.95703125 21.71875 C16.56522705 22.63591797 17.17342285 23.55308594 17.80004883 24.49804688 C19 27 19 27 18.81542969 29.13793945 C17.45006312 32.25579897 15.39803117 34.9240468 13.4375 37.6875 C1.45340006 55.19263091 -5.4975492 75.16963469 -9 96 C-16.3143595 97.92713663 -23.66463821 99.61584974 -31.0625 101.1875 C-31.89563721 101.36635742 -32.72877441 101.54521484 -33.5871582 101.72949219 C-34.37437256 101.89481445 -35.16158691 102.06013672 -35.97265625 102.23046875 C-36.67656494 102.37895264 -37.38047363 102.52743652 -38.10571289 102.68041992 C-40 103 -40 103 -43 103 C-42.93303254 84.28259363 -37.40942138 65.09223793 -30 48 C-29.71431152 47.32598145 -29.42862305 46.65196289 -29.13427734 45.95751953 C-21.85545344 28.96573234 -11.67631137 14.25097191 0 0 Z " fill="#BEE8FB" transform="translate(122,139)"/>
<path d="M0 0 C-3.2491021 37.00096868 -17.00482248 76.44148829 -44 103 C-46.59802151 99.23889524 -49.17918383 95.46698579 -51.74536133 91.68408203 C-52.6206947 90.39874542 -53.50055996 89.11648298 -54.38500977 87.83740234 C-55.65543698 85.99845717 -56.90916602 84.14907896 -58.16015625 82.296875 C-58.75849022 81.44195465 -58.75849022 81.44195465 -59.36891174 80.56976318 C-62.03816499 76.56895965 -62.03816499 76.56895965 -61.8515625 73.78710938 C-60.48913239 70.92788106 -58.71428651 68.36099824 -56.9375 65.75 C-47.53430246 51.44824354 -40.43055664 35.9813539 -36.953125 19.15234375 C-36.78973633 18.37173584 -36.62634766 17.59112793 -36.45800781 16.78686523 C-36.15981899 15.29798745 -35.88693871 13.80374379 -35.64355469 12.30493164 C-35.25 10.28125 -35.25 10.28125 -34 7 C-30.12745301 5.39089297 -26.15392352 4.5300405 -22.05078125 3.7109375 C-20.95572266 3.49179687 -19.86066406 3.27265625 -18.73242188 3.046875 C-17.60384766 2.82515625 -16.47527344 2.6034375 -15.3125 2.375 C-14.17232422 2.14554687 -13.03214844 1.91609375 -11.85742188 1.6796875 C-3.39399647 0 -3.39399647 0 0 0 Z " fill="#BEE8FB" transform="translate(433,270)"/>
<path d="M0 0 C3.11785952 1.36536657 5.78610735 3.41739852 8.54956055 5.37792969 C26.05469146 17.36202963 46.03169524 24.31297888 66.86206055 27.81542969 C68.24656853 31.77300495 69.33055196 35.65415207 70.15112305 39.76464844 C70.37026367 40.85970703 70.5894043 41.95476562 70.81518555 43.08300781 C71.0369043 44.21158203 71.25862305 45.34015625 71.48706055 46.50292969 C71.71651367 47.64310547 71.9459668 48.78328125 72.18237305 49.95800781 C73.86206055 58.42143322 73.86206055 58.42143322 73.86206055 61.81542969 C35.32611448 58.66291639 0.27355603 43.92056914 -29.13793945 18.81542969 C-24.5728859 13.98141173 -19.16897261 10.63458833 -13.63793945 7.00292969 C-12.06979492 5.94428711 -12.06979492 5.94428711 -10.4699707 4.86425781 C-9.46321289 4.20232422 -8.45645508 3.54039062 -7.41918945 2.85839844 C-6.50202148 2.25020264 -5.58485352 1.64200684 -4.63989258 1.01538086 C-2.13793945 -0.18457031 -2.13793945 -0.18457031 0 0 Z " fill="#BEE8FB" transform="translate(168.137939453125,371.1845703125)"/>
<path d="M0 0 C25.21192208 24.98492868 43.19140564 65.23064972 44.07421875 101.0078125 C44.03748047 101.99394531 44.03748047 101.99394531 44 103 C32.95144522 101.26151105 21.98030797 99.12014378 11 97 C9.84704868 93.06164759 8.76820148 89.11809526 7.7734375 85.13671875 C3.12804726 66.83236915 -3.47345562 46.78054547 -16.328125 32.39453125 C-18 30 -18 30 -17.84301758 27.72265625 C-16.79851285 24.34926593 -15.19390001 21.94674445 -13.18359375 19.04296875 C-12.80767593 18.49514236 -12.43175812 17.94731598 -12.04444885 17.38288879 C-10.84977669 15.64567029 -9.64389425 13.9165929 -8.4375 12.1875 C-7.62229231 11.00637982 -6.80783086 9.82474421 -5.99414062 8.64257812 C-4.00469713 5.75570196 -2.00512716 2.87601217 0 0 Z " fill="#BFE9FB" transform="translate(389,139)"/>
<path d="M0 0 C37.11166914 3.25882285 76.2802225 17.07832736 103 44 C99.23889524 46.59802151 95.46698579 49.17918383 91.68408203 51.74536133 C90.39874542 52.6206947 89.11648298 53.50055996 87.83740234 54.38500977 C85.99845717 55.65543698 84.14907896 56.90916602 82.296875 58.16015625 C81.7269281 58.55904556 81.1569812 58.95793488 80.56976318 59.36891174 C76.56895965 62.03816499 76.56895965 62.03816499 73.78710938 61.8515625 C70.92786615 60.48912529 68.361067 58.71420073 65.75 56.9375 C47.88041866 45.19516927 28.14145021 37.36341253 7 34 C4.9904345 26.50980131 3.33510389 18.97712424 1.8125 11.375 C1.63364258 10.48586914 1.45478516 9.59673828 1.27050781 8.68066406 C0 2.25877954 0 2.25877954 0 0 Z " fill="#BFE8FB" transform="translate(270,79)"/>
<path d="M0 0 C4.3552134 0.78597746 8.70896319 1.57979266 13.0625 2.375 C14.29162109 2.59671875 15.52074219 2.8184375 16.78710938 3.046875 C22.62101015 4.1161614 28.34426456 5.20159378 34 7 C34.34611328 8.68802734 34.34611328 8.68802734 34.69921875 10.41015625 C39.008165 30.92262952 45.55001959 49.96931772 57.76245117 67.1796875 C61.81082124 72.90973751 61.81082124 72.90973751 62 76 C60.81140583 78.26517422 59.61653058 80.21595679 58.16015625 82.296875 C57.75921249 82.89050842 57.35826874 83.48414185 56.94517517 84.09576416 C55.6626474 85.9887842 54.36297143 87.86927392 53.0625 89.75 C52.18959875 91.03176528 51.3178394 92.31430901 50.44726562 93.59765625 C48.31131934 96.74095506 46.15991745 99.8731299 44 103 C16.61391028 75.88623932 3.86155849 37.52526251 0 0 Z " fill="#BEE8FB" transform="translate(79,270)"/>
<path d="M0 0 C-0.78597746 4.3552134 -1.57979266 8.70896319 -2.375 13.0625 C-2.59671875 14.29162109 -2.8184375 15.52074219 -3.046875 16.78710938 C-4.1161614 22.62101015 -5.20159378 28.34426456 -7 34 C-7.56170898 34.10957031 -8.12341797 34.21914062 -8.70214844 34.33203125 C-30.63812677 38.71032794 -54.31110397 45.75321551 -71.32421875 61.1015625 C-73.85455102 62.4581509 -75.26863407 61.78427983 -78 61 C-80.86254883 59.32592773 -80.86254883 59.32592773 -83.95703125 57.18359375 C-84.50485764 56.80767593 -85.05268402 56.43175812 -85.61711121 56.04444885 C-87.35432971 54.84977669 -89.0834071 53.64389425 -90.8125 52.4375 C-91.99362018 51.62229231 -93.17525579 50.80783086 -94.35742188 49.99414062 C-97.24429804 48.00469713 -100.12398783 46.00512716 -103 44 C-78.31200898 18.9943706 -35.61095165 -0.47210035 0 0 Z " fill="#BEE8FB" transform="translate(242,79)"/>
<path d="M0 0 C0.66 0 1.32 0 2 0 C4.52368113 12.57159906 7.04515002 25.14363974 9.5639677 37.71621418 C10.73423113 43.557194 11.9051927 49.39803186 13.07788086 55.23852539 C14.21119604 60.88323191 15.34284592 66.52826957 16.47299576 72.17361069 C16.91504378 74.38122376 17.35749448 76.58875624 17.80035019 78.79620743 C21.89283497 99.20782082 21.89283497 99.20782082 23.65478516 109.07958984 C23.99676689 110.99096992 23.99676689 110.99096992 24.34565735 112.94096375 C24.73522161 115.1564932 25.11560226 117.3736711 25.48381042 119.59284973 C26.60034865 126.25163462 26.60034865 126.25163462 30 132 C32.61060528 133.5004387 34.99774385 134.34473889 37.94555664 134.90698242 C38.72700043 135.0591774 39.50844421 135.21137238 40.31356812 135.36817932 C41.1704422 135.52898483 42.02731628 135.68979034 42.91015625 135.85546875 C43.83373932 136.03403915 44.75732239 136.21260956 45.70889282 136.39659119 C47.74566773 136.78992257 49.78294657 137.18065096 51.82064819 137.56915283 C57.48441661 138.64945365 63.14431793 139.74971051 68.8046875 140.84765625 C70.04729843 141.0882074 71.28990936 141.32875854 72.57017517 141.57659912 C89.43454964 144.84581893 106.2753948 148.23410614 123.11863327 151.61017227 C126.54618757 152.29708996 129.97385128 152.98346081 133.40151596 153.66982746 C142.26793365 155.44527372 151.13408368 157.22205177 160 159 C160 159.66 160 160.32 160 161 C158.52534644 161.37251165 157.04482927 161.72181245 155.5625 162.0625 C154.73878906 162.25972656 153.91507813 162.45695313 153.06640625 162.66015625 C143.67669217 163.70079972 133.7773671 160.65906619 124.59375 158.796875 C122.98505377 158.47363797 121.37628764 158.15074868 119.76745605 157.82818604 C115.53497346 156.97864743 111.3034318 156.12451113 107.07208252 155.26934814 C102.85458513 154.41776215 98.636251 153.5703443 94.41796875 152.72265625 C87.91659158 151.41564448 81.4155246 150.10710346 74.91479492 148.796875 C73.76875306 148.56590874 73.76875306 148.56590874 72.59955883 148.33027649 C69.07475115 147.61986798 65.54998725 146.90924338 62.02529907 146.19824219 C58.56529514 145.50069324 55.10496586 144.80478371 51.64453125 144.109375 C50.67394775 143.91325623 49.70336426 143.71713745 48.70336914 143.51507568 C42.08761764 142.18757291 35.45923899 141.0120328 28.79296875 139.96875 C25.01224662 138.65739463 24.00182905 137.48335892 22 134 C20.85064673 130.43217361 20.15196483 126.80138573 19.4375 123.125 C19.19700928 121.94736084 18.95651855 120.76972168 18.70874023 119.55639648 C18.13501509 116.7426263 17.57194986 113.92693152 17.01464844 111.10986328 C16.05701548 106.27341952 15.07987428 101.44102819 14.10131836 96.60877991 C11.70695151 84.78446714 9.34652286 72.95380802 7.01123047 61.11769104 C5.77390525 54.85902851 4.51335977 48.60624478 3.21333313 42.36030579 C2.51488854 38.99140741 1.83401947 35.61912011 1.15719604 32.24581909 C0.8501972 30.73707463 0.53535478 29.22989934 0.21170044 27.72463989 C-1.89389724 17.91064195 -2.09605275 9.85885481 0 0 Z " fill="#E23A36" transform="translate(255,96)"/>
<path d="M0 0 C3.33872877 0.50932636 6.54039289 1.13378024 9.80151367 2.01318359 C10.85209961 2.29162109 11.90268555 2.57005859 12.98510742 2.85693359 C13.77014648 3.07349609 14.55518555 3.29005859 15.36401367 3.51318359 C15.8704492 5.74089701 16.36890987 7.97042436 16.86401367 10.20068359 C17.14245117 11.44205078 17.42088867 12.68341797 17.70776367 13.96240234 C18.27665478 17.04050961 18.71144003 19.4229759 18.36401367 22.51318359 C16.80126953 24.14138794 16.80126953 24.14138794 14.57885742 25.56835938 C13.33495239 26.38543869 13.33495239 26.38543869 12.06591797 27.21902466 C11.15366455 27.79305023 10.24141113 28.36707581 9.30151367 28.95849609 C8.36283447 29.56901825 7.42415527 30.17954041 6.45703125 30.80856323 C3.43640057 32.76839503 0.40095573 34.70374587 -2.63598633 36.63818359 C-5.6033055 38.55058499 -8.56741089 40.46789206 -11.53125 42.38568115 C-13.46952314 43.63832403 -15.40978153 44.8879006 -17.35205078 46.13433838 C-23.96484685 50.38677689 -30.47214028 54.76643236 -36.85400391 59.35916138 C-41.31579513 62.51318359 -41.31579513 62.51318359 -44.63598633 62.51318359 C-40.72637816 56.57602901 -36.81595928 50.63940895 -32.9050293 44.703125 C-31.5803072 42.69217443 -30.2557571 40.68111053 -28.93139648 38.66992188 C-28.29379395 37.7016748 -27.65619141 36.73342773 -26.99926758 35.73583984 C-26.36331665 34.76958679 -25.72736572 33.80333374 -25.07214355 32.80780029 C-23.79281669 30.86815601 -22.51018479 28.93068754 -21.22424316 26.99542236 C-18.16446996 22.38656429 -15.15257674 17.76175415 -12.2512207 13.05126953 C-11.72075134 12.20772919 -11.19028198 11.36418884 -10.64373779 10.49508667 C-9.65613244 8.92152219 -8.68752966 7.33580618 -7.74200439 5.73660278 C-4.50081784 0.63524603 -4.50081784 0.63524603 0 0 Z " fill="#B1CC9A" transform="translate(194.635986328125,298.48681640625)"/>
<path d="M0 0 C0 3.63381174 -0.86101631 4.6139291 -2.91015625 7.56640625 C-3.8846875 8.98373047 -3.8846875 8.98373047 -4.87890625 10.4296875 C-5.59949219 11.46351563 -6.32007813 12.49734375 -7.0625 13.5625 C-8.20160254 15.21558784 -9.34066477 16.86870392 -10.47848511 18.52267456 C-11.30019912 19.7166977 -12.12275521 20.91014169 -12.94607544 22.10305786 C-16.39900934 27.10975125 -19.81253076 32.14239173 -23.21484375 37.18359375 C-23.73675797 37.95683487 -24.25867218 38.73007599 -24.79640198 39.52674866 C-26.88583292 42.62336819 -28.97446379 45.72052663 -31.06277466 48.81790161 C-32.53041658 50.99387271 -33.99945037 53.16889804 -35.46875 55.34375 C-35.91278671 56.00301987 -36.35682343 56.66228973 -36.8143158 57.34153748 C-39.88637504 61.88637504 -39.88637504 61.88637504 -41 63 C-46.7075571 63.36431216 -52.5640909 62.85834552 -58 61 C-59.93778802 58.09331797 -60.47838634 56.52833724 -61.125 53.1875 C-61.29257812 52.35605469 -61.46015625 51.52460938 -61.6328125 50.66796875 C-62.05090264 47.63014356 -62.31002955 45.06397918 -62 42 C-60.09912109 40.00244141 -60.09912109 40.00244141 -57.3984375 38.2265625 C-56.39006836 37.54754883 -55.38169922 36.86853516 -54.34277344 36.16894531 C-53.2396582 35.45319336 -52.13654297 34.73744141 -51 34 C-49.87094175 33.24059491 -48.74368531 32.47850471 -47.61816406 31.71386719 C-43.97058518 29.24201661 -40.29877614 26.80767187 -36.625 24.375 C-35.30631902 23.49926258 -33.98779867 22.62328324 -32.66943359 21.74707031 C-30.03423584 19.99600217 -27.39829424 18.24606326 -24.76171875 16.49707031 C-19.37668706 12.9238989 -14.00095763 9.33680568 -8.625 5.75 C-6.929735 4.61972042 -5.23442796 3.48950389 -3.5390625 2.359375 C-2.85021973 1.90014648 -2.16137695 1.44091797 -1.45166016 0.96777344 C-0.9726123 0.6484082 -0.49356445 0.32904297 0 0 Z " fill="#B2CD9A" transform="translate(356,155)"/>
<path d="M0 0 C4.99071507 1.66500952 9.04151146 4.52508426 13.36328125 7.4453125 C14.15526413 7.97518768 14.94724701 8.50506287 15.76322937 9.05099487 C18.28258408 10.73800516 20.79757378 12.43139681 23.3125 14.125 C25.02380422 15.27255953 26.73538967 16.41969978 28.44726562 17.56640625 C32.63478476 20.37275629 36.81840184 23.18483582 41 26 C29.28804773 38.11320819 10.00159905 44.24271846 -6 48 C-6.99 48 -7.98 48 -9 48 C-6.04845336 31.99059241 -3.06729978 15.98765749 0 0 Z " fill="#FBE998" transform="translate(289,334)"/>
<path d="M0 0 C3.42559248 4.13397117 6.43122425 8.47560729 9.421875 12.92578125 C9.92672424 13.67337204 10.43157349 14.42096283 10.95172119 15.19120789 C12.55315339 17.56362593 14.15161659 19.93802709 15.75 22.3125 C16.83964786 23.92786653 17.92948956 25.54310232 19.01953125 27.15820312 C21.68193355 31.10395902 24.34167614 35.05149536 27 39 C24.73679933 41.26320067 23.82687355 41.43618375 20.765625 42.05322266 C19.89131836 42.23325836 19.01701172 42.41329407 18.11621094 42.5987854 C17.17036133 42.78532684 16.22451172 42.97186829 15.25 43.1640625 C14.28094727 43.36099701 13.31189453 43.55793152 12.31347656 43.76083374 C10.26308481 44.17613299 8.21195228 44.58778891 6.16015625 44.99609375 C3.01146331 45.62271867 -0.13502559 46.25954525 -3.28125 46.8984375 C-5.27071326 47.30007441 -7.26029285 47.70113559 -9.25 48.1015625 C-10.19584961 48.2921524 -11.14169922 48.48274231 -12.11621094 48.67910767 C-12.99051758 48.85283905 -13.86482422 49.02657043 -14.765625 49.20556641 C-15.53680664 49.35941803 -16.30798828 49.51326965 -17.10253906 49.67178345 C-19 50 -19 50 -21 50 C-19.93901646 32.67060217 -10.60253318 13.48509688 0 0 Z " fill="#FAE897" transform="translate(151,182)"/>
<path d="M0 0 C2.26320067 2.26320067 2.43618375 3.17312645 3.05322266 6.234375 C3.23325836 7.10868164 3.41329407 7.98298828 3.5987854 8.88378906 C3.78532684 9.82963867 3.97186829 10.77548828 4.1640625 11.75 C4.36099701 12.71905273 4.55793152 13.68810547 4.76083374 14.68652344 C5.17613299 16.73691519 5.58778891 18.78804772 5.99609375 20.83984375 C6.62271867 23.98853669 7.25954525 27.13502559 7.8984375 30.28125 C8.30007441 32.27071326 8.70113559 34.26029285 9.1015625 36.25 C9.2921524 37.19584961 9.48274231 38.14169922 9.67910767 39.11621094 C9.85283905 39.99051758 10.02657043 40.86482422 10.20556641 41.765625 C10.35941803 42.53680664 10.51326965 43.30798828 10.67178345 44.10253906 C11 46 11 46 11 48 C-2.21871711 46.34409159 -14.50103507 41.56778401 -26.25 35.4375 C-26.9527002 35.07390381 -27.65540039 34.71030762 -28.37939453 34.33569336 C-29.04310059 33.97612549 -29.70680664 33.61655762 -30.390625 33.24609375 C-30.96844727 32.93341553 -31.54626953 32.6207373 -32.14160156 32.29858398 C-34.68592054 30.52070266 -36.80518554 28.19481446 -39 26 C-26.13 17.42 -13.26 8.84 0 0 Z " fill="#FCEA97" transform="translate(221,334)"/>
<path d="M0 0 C8.24516285 7.93910792 12.99351623 19.21775209 16.9375 29.8125 C17.21956299 30.56345947 17.50162598 31.31441895 17.79223633 32.08813477 C19.87670062 37.95232554 21.02802286 43.86093195 22 50 C5.99059241 47.04845336 -10.01234251 44.06729978 -26 41 C-24.33499048 36.00928493 -21.47491574 31.95848854 -18.5546875 27.63671875 C-18.02481232 26.84473587 -17.49493713 26.05275299 -16.94900513 25.23677063 C-15.26199484 22.71741592 -13.56860319 20.20242622 -11.875 17.6875 C-10.72744047 15.97619578 -9.58030022 14.26461033 -8.43359375 12.55273438 C-5.62724371 8.36521524 -2.81516418 4.18159816 0 0 Z " fill="#FCEA98" transform="translate(360,182)"/>
<path d="M0 0 C18.44260838 3.58934248 34.6225062 10.163006 50 21 C45.87997224 24.40657053 41.56427562 27.4254869 37.14453125 30.421875 C36.40168381 30.92672424 35.65883636 31.43157349 34.89347839 31.95172119 C33.33184798 33.0117447 31.76944029 34.07062396 30.20629883 35.12841797 C27.80671208 36.75392079 25.41209999 38.3865796 23.01757812 40.01953125 C21.49769494 41.04992051 19.97752276 42.07988363 18.45703125 43.109375 C17.7393306 43.59992371 17.02162994 44.09047241 16.28218079 44.59588623 C11.22874701 48 11.22874701 48 9 48 C5.72979377 32.04260478 2.69685749 16.064487 0 0 Z " fill="#FBE998" transform="translate(280,130)"/>
<path d="M0 0 C1.00861084 0.19577637 1.00861084 0.19577637 2.03759766 0.39550781 C17.34127493 3.36220268 32.65624612 6.24796398 48 9 C46.33499048 13.99071507 43.47491574 18.04151146 40.5546875 22.36328125 C39.75987473 23.55125557 39.75987473 23.55125557 38.94900513 24.76322937 C37.26199484 27.28258408 35.56860319 29.79757378 33.875 32.3125 C32.72744047 34.02380422 31.58030022 35.73538967 30.43359375 37.44726562 C27.62724371 41.63478476 24.81516418 45.81840184 22 50 C17.89444503 46.03491833 15.23112526 42.44366579 12.625 37.4375 C12.05072266 36.34223999 12.05072266 36.34223999 11.46484375 35.22485352 C8.53547896 29.44823861 6.15505587 23.54197212 4 17.4375 C3.56421631 16.20761353 3.56421631 16.20761353 3.11962891 14.95288086 C1.43358308 9.95135291 0.48173211 5.25690161 0 0 Z " fill="#FCEA98" transform="translate(130,280)"/>
<path d="M0 0 C-3.58934248 18.44260838 -10.163006 34.6225062 -21 50 C-24.40657053 45.87997224 -27.4254869 41.56427562 -30.421875 37.14453125 C-30.92672424 36.40168381 -31.43157349 35.65883636 -31.95172119 34.89347839 C-33.0117447 33.33184798 -34.07062396 31.76944029 -35.12841797 30.20629883 C-36.75392079 27.80671208 -38.3865796 25.41209999 -40.01953125 23.01757812 C-41.04992051 21.49769494 -42.07988363 19.97752276 -43.109375 18.45703125 C-43.59992371 17.7393306 -44.09047241 17.02162994 -44.59588623 16.28218079 C-48 11.22874701 -48 11.22874701 -48 9 C-47.13947021 8.83395264 -46.27894043 8.66790527 -45.39233398 8.49682617 C-42.12126052 7.86538963 -38.85027597 7.23349609 -35.5793457 6.60131836 C-34.17833801 6.33063467 -32.77729765 6.06011997 -31.3762207 5.78979492 C-29.33275322 5.39549308 -27.28939613 5.00062523 -25.24609375 4.60546875 C-24.23027725 4.40919388 -24.23027725 4.40919388 -23.19393921 4.20895386 C-19.69171547 3.53003345 -16.19217128 2.83983396 -12.69580078 2.13134766 C-12.00712418 1.99199295 -11.31844757 1.85263824 -10.60890198 1.70906067 C-8.70512348 1.32259691 -6.80188563 0.93347261 -4.89868164 0.54418945 C-2 0 -2 0 0 0 Z " fill="#FDEA97" transform="translate(382,280)"/>
<path d="M0 0 C-0.19577637 1.00861084 -0.19577637 1.00861084 -0.39550781 2.03759766 C-3.36220268 17.34127493 -6.24796398 32.65624612 -9 48 C-13.99071507 46.33499048 -18.04151146 43.47491574 -22.36328125 40.5546875 C-23.55125557 39.75987473 -23.55125557 39.75987473 -24.76322937 38.94900513 C-27.28258408 37.26199484 -29.79757378 35.56860319 -32.3125 33.875 C-34.02380422 32.72744047 -35.73538967 31.58030022 -37.44726562 30.43359375 C-41.63478476 27.62724371 -45.81840184 24.81516418 -50 22 C-46.64299813 18.51358473 -43.14160485 16.04843352 -38.9375 13.6875 C-37.90206055 13.10536743 -37.90206055 13.10536743 -36.84570312 12.51147461 C-26.35403227 6.81369388 -12.16185188 0 0 0 Z " fill="#FCEA97" transform="translate(232,130)"/>
<path d="M0 0 C2.94263526 1.39984911 5.60843748 3.00010931 8.30615234 4.82568359 C9.56798843 5.67699356 9.56798843 5.67699356 10.85531616 6.54550171 C11.7564212 7.15697052 12.65752625 7.76843933 13.5859375 8.3984375 C14.98774765 9.34549057 14.98774765 9.34549057 16.4178772 10.31167603 C19.40511363 12.33053376 22.39009909 14.35269117 25.375 16.375 C27.37745258 17.72939082 29.38005506 19.08356003 31.3828125 20.4375 C34.21134894 22.34973462 37.03966534 24.26228504 39.86679077 26.17660522 C40.71431915 26.75044952 41.56184753 27.32429382 42.43505859 27.91552734 C43.22338074 28.45328796 44.01170288 28.99104858 44.82391357 29.54510498 C46.17358982 30.44747596 47.53895494 31.32736838 48.92657471 32.17022705 C50.58447266 33.18212891 50.58447266 33.18212891 53 35 C53.76294163 40.72206226 52.57287845 45.49492541 51 51 C48.89679937 51.50404808 46.79240209 52.00310508 44.6875 52.5 C43.51574219 52.7784375 42.34398437 53.056875 41.13671875 53.34375 C38 54 38 54 35 54 C33.57865906 52.39015198 33.57865906 52.39015198 32.0925293 50.10375977 C31.53152023 49.2518959 30.97051117 48.40003204 30.39250183 47.52235413 C29.79246841 46.58814133 29.192435 45.65392853 28.57421875 44.69140625 C27.94900833 43.73612534 27.32379791 42.78084442 26.67964172 41.7966156 C24.67238558 38.7248872 22.679776 35.64396052 20.6875 32.5625 C19.35578473 30.51824992 18.02311377 28.47462208 16.68945312 26.43164062 C14.21883102 22.6452262 11.75452278 18.85484651 9.2956543 15.06079102 C6.60290548 10.90624297 3.8550498 6.79208508 1.07258606 2.6971283 C0 1 0 1 0 0 Z " fill="#B1CC99" transform="translate(160,165)"/>
<path d="M0 0 C4.294743 0.67429136 4.63285865 1.09762966 7.14208984 4.39550781 C8.32515047 6.14060516 9.48161122 7.9039218 10.61621094 9.6809082 C11.23813324 10.61399307 11.86005554 11.54707794 12.50082397 12.50843811 C14.48675154 15.50067604 16.43781863 18.51400228 18.38964844 21.52856445 C19.71042253 23.52542597 21.03331676 25.52088689 22.35839844 27.51489258 C27.78696852 35.72805912 33.10749674 43.91014885 37.76464844 52.59106445 C34.30372093 51.31056024 31.37788394 49.82289767 28.32910156 47.74951172 C27.06253723 46.89336021 27.06253723 46.89336021 25.77038574 46.01991272 C24.87130493 45.40530685 23.97222412 44.79070099 23.04589844 44.1574707 C22.11040161 43.52373032 21.17490479 42.88998993 20.21105957 42.23704529 C17.22588093 40.21365829 14.24510401 38.18390061 11.26464844 36.15356445 C8.28340664 34.12798456 5.30126194 32.10374868 2.3182373 30.08079529 C0.46391162 28.82270961 -1.38924653 27.56290092 -3.24108887 26.30116272 C-4.08546509 25.72724289 -4.92984131 25.15332306 -5.79980469 24.56201172 C-6.53751099 24.05952408 -7.27521729 23.55703644 -8.03527832 23.0393219 C-10.39588878 21.4853865 -12.80287519 20.02937348 -15.23535156 18.59106445 C-14.92712535 16.29881905 -14.61364283 14.0072799 -14.29785156 11.71606445 C-14.12382812 10.43989258 -13.94980469 9.1637207 -13.77050781 7.84887695 C-13.23535156 4.59106445 -13.23535156 4.59106445 -12.23535156 2.59106445 C-10.41503906 1.95825195 -10.41503906 1.95825195 -8.11035156 1.46606445 C-7.36527344 1.29848633 -6.62019531 1.1309082 -5.85253906 0.95825195 C-3.89488911 0.68359659 -1.94463773 0.35526471 0 0 Z " fill="#B1CC99" transform="translate(308.2353515625,298.408935546875)"/>
<path d="M0 0 C25.33543292 24.66518337 43.19693917 65.45490314 44.07421875 101.0078125 C44.03748047 101.99394531 44.03748047 101.99394531 44 103 C41.03 102.67 38.06 102.34 35 102 C35.99 101.67 36.98 101.34 38 101 C34.08661869 78.93402186 28.69483012 58.75787173 18 39 C17.50886719 38.030625 17.01773437 37.06125 16.51171875 36.0625 C12.43817701 28.16786136 7.27922147 21.11614356 2 14 C1.34773438 13.11957031 0.69546875 12.23914063 0.0234375 11.33203125 C-1.30896684 9.54812497 -2.65273853 7.77271246 -4 6 C-2.68 4.02 -1.36 2.04 0 0 Z " fill="#80D0F5" transform="translate(389,139)"/>
<path d="M0 0 C36.8975122 3.24001745 76.56799583 16.97268042 103 44 C100.69 45.32 98.38 46.64 96 48 C95.54753906 47.55011719 95.09507812 47.10023437 94.62890625 46.63671875 C69.69885244 23.12046761 35.04935966 11.68337151 2 6 C1.67 6.99 1.34 7.98 1 9 C0.67 6.03 0.34 3.06 0 0 Z " fill="#80D1F6" transform="translate(270,79)"/>
<path d="M0 0 C3.07073645 1.43174173 5.74665597 3.45428469 8.49975586 5.4074707 C26.00488677 17.39157064 45.98189055 24.3425199 66.81225586 27.8449707 C68.19676384 31.80254597 69.28074727 35.68369308 70.10131836 39.79418945 C70.32045898 40.88924805 70.53959961 41.98430664 70.76538086 43.11254883 C70.98709961 44.24112305 71.20881836 45.36969727 71.43725586 46.5324707 C71.66670898 47.67264648 71.89616211 48.81282227 72.13256836 49.98754883 C73.81225586 58.45097424 73.81225586 58.45097424 73.81225586 61.8449707 C67.93725586 60.9699707 67.93725586 60.9699707 66.81225586 59.8449707 C66.37279834 57.92578756 65.98537975 55.9946283 65.62084961 54.05981445 C65.28730469 52.30507813 65.28730469 52.30507813 64.94702148 50.51489258 C64.71692383 49.28319336 64.48682617 48.05149414 64.24975586 46.7824707 C64.01579102 45.5469043 63.78182617 44.31133789 63.54077148 43.03833008 C62.96113064 39.97451417 62.38512526 36.91005872 61.81225586 33.8449707 C61.22959961 33.72492676 60.64694336 33.60488281 60.04663086 33.48120117 C37.55510314 28.78220472 16.07704227 22.11601928 -1.89086914 7.1809082 C-4.07436382 5.66477321 -4.07436382 5.66477321 -6.47290039 5.78637695 C-10.54200044 7.37303323 -13.85352497 9.85462269 -17.37524414 12.4074707 C-18.80330652 13.43369184 -20.23416515 14.45603656 -21.66821289 15.47387695 C-22.29622803 15.92835205 -22.92424316 16.38282715 -23.57128906 16.85107422 C-25.18774414 17.8449707 -25.18774414 17.8449707 -27.18774414 17.8449707 C-27.51774414 18.5049707 -27.84774414 19.1649707 -28.18774414 19.8449707 C-28.18774414 18.8549707 -28.18774414 17.8649707 -28.18774414 16.8449707 C-25.86450195 14.92797852 -25.86450195 14.92797852 -22.64086914 12.7980957 C-22.07325867 12.42263611 -21.50564819 12.04717651 -20.9208374 11.66033936 C-19.71702091 10.86848626 -18.50964713 10.08201903 -17.29907227 9.30053711 C-15.44817549 8.101727 -13.61472557 6.87916837 -11.78149414 5.65356445 C-10.6105952 4.88774711 -9.43874942 4.12337509 -8.26586914 3.3605957 C-7.19755859 2.66224609 -6.12924805 1.96389648 -5.02856445 1.24438477 C-2.18774414 -0.1550293 -2.18774414 -0.1550293 0 0 Z " fill="#80D0F5" transform="translate(168.187744140625,371.155029296875)"/>
<path d="M0 0 C4.3552134 0.78597746 8.70896319 1.57979266 13.0625 2.375 C14.29162109 2.59671875 15.52074219 2.8184375 16.78710938 3.046875 C22.62101015 4.1161614 28.34426456 5.20159378 34 7 C34.34611328 8.68802734 34.34611328 8.68802734 34.69921875 10.41015625 C39.008165 30.92262952 45.55001959 49.96931772 57.76245117 67.1796875 C61.9519244 73.10945447 61.9519244 73.10945447 62 76 C60.78515625 78.359375 60.78515625 78.359375 59.0625 80.75 C58.49660156 81.54921875 57.93070313 82.3484375 57.34765625 83.171875 C56.90292969 83.77515625 56.45820313 84.3784375 56 85 C55 83 55 83 55.65234375 80.6796875 C56.28438148 77.93756423 56.28438148 77.93756423 54.62890625 75.6328125 C53.60603516 74.39144531 53.60603516 74.39144531 52.5625 73.125 C38.89768073 55.25379288 32.00898485 33.88237563 28 12 C14.635 9.03 14.635 9.03 1 6 C0.67 4.02 0.34 2.04 0 0 Z " fill="#80D2F7" transform="translate(79,270)"/>
<path d="M0 0 C3.65585429 1.68595222 6.92497031 3.87667686 10.25 6.125 C11.60141324 7.03277432 12.95298702 7.94030968 14.3046875 8.84765625 C15.42375488 9.60006592 15.42375488 9.60006592 16.56542969 10.36767578 C20.15814328 12.77650882 23.76245135 15.16779358 27.36621094 17.56005859 C29.38529949 18.90382395 31.40154754 20.25186641 33.41503906 21.60400391 C38.34995429 24.91797855 43.29587458 28.20457841 48.31484985 31.38963318 C50.65621489 32.88052527 52.98313282 34.3930772 55.30841064 35.90890503 C56.96966052 36.98043068 58.64954293 38.02289079 60.32958984 39.06469727 C67.58101028 43.82166163 67.58101028 43.82166163 68.72851562 47.04882812 C68.78125 49.09375 68.78125 49.09375 68 53 C67.7834375 54.1240625 67.566875 55.248125 67.34375 56.40625 C67.0653125 57.4271875 66.786875 58.448125 66.5 59.5 C66.2215625 60.5415625 65.943125 61.583125 65.65625 62.65625 C65.4396875 63.4296875 65.223125 64.203125 65 65 C63.02 65.495 63.02 65.495 61 66 C61.33 60.72 61.66 55.44 62 50 C60.04779541 48.72153198 60.04779541 48.72153198 58.05615234 47.41723633 C53.21189603 44.24340444 48.37085891 41.06469171 43.53076172 37.88452148 C41.43853345 36.51079865 39.34544335 35.13838744 37.25146484 33.76733398 C34.2356586 31.79237488 31.22301926 29.81266465 28.2109375 27.83203125 C27.27945892 27.22349808 26.34798035 26.6149649 25.38827515 25.98799133 C21.63289964 23.51319428 17.96572023 21.06662693 14.54931641 18.13549805 C12.12179341 15.83683166 12.12179341 15.83683166 9 15 C7.24609375 12.63671875 7.24609375 12.63671875 5.4375 9.6875 C4.83808594 8.72199219 4.23867187 7.75648438 3.62109375 6.76171875 C2.3159178 4.53820213 1.11001364 2.32495394 0 0 Z " fill="#689D39" transform="translate(150,150)"/>
<path d="M0 0 C3.76992041 0.67532152 4.12176647 1.27073437 6.34472656 4.23339844 C7.48433803 5.92317594 8.60117201 7.62844954 9.69970703 9.34521484 C10.30644257 10.25695465 10.9131781 11.16869446 11.53829956 12.10806274 C13.48420901 15.04182298 15.4007441 17.99351531 17.31689453 20.94677734 C18.58321438 22.86730847 19.85142522 24.78659416 21.12158203 26.70458984 C23.62189722 30.4866084 26.11151362 34.27529685 28.59130859 38.07080078 C32.01496641 43.30851549 35.46574796 48.52761762 38.93408203 53.73583984 C39.42393585 54.47353607 39.91378967 55.2112323 40.41848755 55.97128296 C42.22754226 58.68512537 44.02457645 61.35540312 46.02050781 63.93652344 C47.19189453 65.57177734 47.19189453 65.57177734 47.19189453 67.57177734 C45.85732205 66.90759476 44.52432939 66.24023793 43.19189453 65.57177734 C41.98146484 64.99556641 41.98146484 64.99556641 40.74658203 64.40771484 C34.56484131 61.03749468 31.05705957 57.43888126 27.58642578 51.48583984 C26.71721665 50.04840699 25.84671775 48.61175345 24.97509766 47.17578125 C24.52263672 46.42371399 24.07017578 45.67164673 23.60400391 44.89678955 C19.72453463 38.50931449 15.6504562 32.24292087 11.56811523 25.98388672 C10.51095289 24.35316635 9.46332403 22.71623209 8.42456055 21.07373047 C6.89710615 18.66163626 5.339476 16.2717671 3.77392578 13.88427734 C3.31645462 13.14701416 2.85898346 12.40975098 2.38764954 11.65014648 C1.09355586 9.71604344 -0.0533957 8.10112401 -1.80810547 6.57177734 C-5.4323559 5.94334245 -5.4323559 5.94334245 -8.80810547 6.57177734 C-9.68337891 6.64396484 -10.55865234 6.71615234 -11.46044922 6.79052734 C-12.59160156 6.92974609 -12.59160156 6.92974609 -13.74560547 7.07177734 C-14.51775391 7.16458984 -15.28990234 7.25740234 -16.08544922 7.35302734 C-16.93816406 7.46130859 -16.93816406 7.46130859 -17.80810547 7.57177734 C-17.47810547 6.25177734 -17.14810547 4.93177734 -16.80810547 3.57177734 C-11.22103875 1.8614508 -5.69950499 1.16051475 0 0 Z " fill="#699E3A" transform="translate(313.80810546875,293.42822265625)"/>
<path d="M0 0 C0.66 0.33 1.32 0.66 2 1 C-2.67370901 25.75271197 -7.66514252 50.44280251 -12.61456299 75.14147949 C-13.7886866 81.00172706 -14.96167285 86.86220226 -16.13476562 92.72265625 C-18.42208776 104.14865581 -20.71063581 115.57440943 -23 127 C-23.66 127 -24.32 127 -25 127 C-26.85167919 117.94196028 -24.67106176 109.6184936 -22.80859375 100.74609375 C-22.4615625 99.04225176 -22.11580931 97.33814903 -21.77125549 95.63380432 C-20.85973623 91.14082877 -19.93251018 86.6512443 -19.00140381 82.16229248 C-17.53672597 75.08494505 -16.09863107 68.00211419 -14.65480423 60.92049026 C-14.12267404 58.31632743 -13.58727937 55.71285218 -13.05136108 53.10946655 C-11.36703439 44.90317633 -9.73272993 36.69297733 -8.23876953 28.44970703 C-8.10243764 27.7012769 -7.96610575 26.95284678 -7.82564259 26.18173695 C-7.19186421 22.69302929 -6.56976634 19.20291097 -5.96763611 15.70860291 C-5.7502327 14.49515701 -5.53282928 13.28171112 -5.30883789 12.03149414 C-5.0359066 10.45544151 -5.0359066 10.45544151 -4.75746155 8.84754944 C-3.85754503 5.46446446 -2.50627548 2.50627548 0 0 Z " fill="#E33C38" transform="translate(280,288)"/>
<path d="M0 0 C0 0.99 0 1.98 0 3 C-4.29140934 5.34351533 -8.14868447 6.64707433 -12.94140625 7.578125 C-13.60838531 7.7100676 -14.27536438 7.84201019 -14.96255493 7.97795105 C-17.16097015 8.41047403 -19.36160256 8.8303069 -21.5625 9.25 C-23.12879345 9.55539814 -24.69495317 9.86148281 -26.26098633 10.16821289 C-38.74284162 12.60344833 -51.24100553 14.95881464 -63.7434082 17.28613281 C-72.15119306 18.85686867 -80.53684752 20.50822043 -88.91015625 22.25390625 C-90.73736022 22.6317168 -92.56458985 23.00940334 -94.3918457 23.38696289 C-97.8871967 24.10965838 -101.37826174 24.84972808 -104.86791992 25.59936523 C-106.4690978 25.93150475 -108.07040974 26.26299891 -109.671875 26.59375 C-110.38283829 26.75166519 -111.09380157 26.90958038 -111.8263092 27.07228088 C-117.07770767 28.13400304 -121.72319734 27.84439604 -127 27 C-127 26.34 -127 25.68 -127 25 C-115.73224175 22.7370733 -104.46403798 20.47637884 -93.1953001 18.21833515 C-87.95966118 17.16914278 -82.72416396 16.11925497 -77.48901367 15.06762695 C-35.20774615 6.57518185 -35.20774615 6.57518185 -15.24145508 2.96166992 C-10.14775505 2.03858083 -5.07220946 1.03417163 0 0 Z " fill="#DF3A36" transform="translate(223,230)"/>
<path d="M0 0 C-2.68717655 30.60172697 -12.28231552 60.67119754 -30 86 C-30.99 86.495 -30.99 86.495 -32 87 C-30.87687612 83.88363979 -29.50222621 81.01780877 -27.8984375 78.12890625 C-14.97649089 54.8493004 -9.06893871 31.07819811 -5 5 C-5.70084717 5.15146484 -6.40169434 5.30292969 -7.1237793 5.45898438 C-10.31057711 6.14460079 -13.49899406 6.82237381 -16.6875 7.5 C-17.79029297 7.73847656 -18.89308594 7.97695313 -20.02929688 8.22265625 C-21.09599609 8.44824219 -22.16269531 8.67382812 -23.26171875 8.90625 C-24.24100342 9.11572266 -25.22028809 9.32519531 -26.22924805 9.54101562 C-28.87955633 9.9800481 -31.31993732 10.08555667 -34 10 C-33.67 8.68 -33.34 7.36 -33 6 C-28.78321236 5.14180668 -24.56567827 4.28741212 -20.34741211 3.43652344 C-18.91263064 3.14655065 -17.47805804 2.8555424 -16.04370117 2.56347656 C-13.98149843 2.14375513 -11.91857229 1.72776795 -9.85546875 1.3125 C-8.61434326 1.06113281 -7.37321777 0.80976563 -6.09448242 0.55078125 C-3 0 -3 0 0 0 Z " fill="#80CFF3" transform="translate(433,270)"/>
<path d="M0 0 C-0.78597746 4.3552134 -1.57979266 8.70896319 -2.375 13.0625 C-2.59671875 14.29162109 -2.8184375 15.52074219 -3.046875 16.78710938 C-4.1161614 22.62101015 -5.20159378 28.34426456 -7 34 C-7.99 34 -8.98 34 -10 34 C-9.56279178 24.0753735 -7.27718577 14.6277296 -5 5 C-34.61638217 9.30769679 -63.02739815 16.90949403 -88 34 C-88.66 33.67 -89.32 33.34 -90 33 C-80.06342791 26.03297819 -70.04885948 20.03105961 -59 15 C-58.32211426 14.68933594 -57.64422852 14.37867187 -56.94580078 14.05859375 C-39.63691119 6.24035683 -19.17002621 -0.25414025 0 0 Z " fill="#80CFF4" transform="translate(242,79)"/>
<path d="M0 0 C12.57188139 11.32320694 20.19168192 33.57751952 22 50 C18.68359375 49.5078125 18.68359375 49.5078125 15 48 C13.6291343 45.14585137 12.82302423 42.89028055 12.0625 39.875 C8.50439998 27.65578397 3.06826568 16.60239852 -4 6 C-2.68 4.02 -1.36 2.04 0 0 Z " fill="#F8D436" transform="translate(360,182)"/>
<path d="M0 0 C18.44260838 3.58934248 34.6225062 10.163006 50 21 C45.375 25 45.375 25 42 25 C40.02647387 23.8514486 38.09461918 22.63073569 36.1875 21.375 C26.31883232 15.09139069 15.97628232 10.89836545 4.546875 8.34765625 C2 7 2 7 0.640625 3.37109375 C0.42921875 2.25863281 0.2178125 1.14617187 0 0 Z " fill="#F9D537" transform="translate(280,130)"/>
<path d="M0 0 C1.00861084 0.19577637 1.00861084 0.19577637 2.03759766 0.39550781 C17.34127493 3.36220268 32.65624612 6.24796398 48 9 C46.33499048 13.99071507 43.47491574 18.04151146 40.5546875 22.36328125 C39.75987473 23.55125557 39.75987473 23.55125557 38.94900513 24.76322937 C37.26199484 27.28258408 35.56860319 29.79757378 33.875 32.3125 C32.72744047 34.02380422 31.58030022 35.73538967 30.43359375 37.44726562 C27.62724371 41.63478476 24.81516418 45.81840184 22 50 C21.34 49.34 20.68 48.68 20 48 C20.4846875 47.34733154 20.969375 46.69466309 21.46875 46.0222168 C26.56038559 39.1026106 31.34266848 32.02997499 36 24.8125 C36.67933594 23.76513672 37.35867187 22.71777344 38.05859375 21.63867188 C39.70844243 19.09418694 41.35553088 16.54796358 43 14 C42.35458252 13.9575415 41.70916504 13.91508301 41.04418945 13.87133789 C33.60838055 13.29894537 26.47279339 11.99957192 19.1875 10.4375 C17.01549755 9.97234549 14.84234425 9.51252607 12.66796875 9.05859375 C11.24907349 8.75393188 11.24907349 8.75393188 9.80151367 8.44311523 C6.82475071 7.97228083 4.00881527 7.9247588 1 8 C0.67 5.36 0.34 2.72 0 0 Z " fill="#F7D338" transform="translate(130,280)"/>
<path d="M0 0 C2.26320067 2.26320067 2.43618375 3.17312645 3.05322266 6.234375 C3.23325836 7.10868164 3.41329407 7.98298828 3.5987854 8.88378906 C3.78532684 9.82963867 3.97186829 10.77548828 4.1640625 11.75 C4.36099701 12.71905273 4.55793152 13.68810547 4.76083374 14.68652344 C5.17613299 16.73691519 5.58778891 18.78804772 5.99609375 20.83984375 C6.62271867 23.98853669 7.25954525 27.13502559 7.8984375 30.28125 C8.30007441 32.27071326 8.70113559 34.26029285 9.1015625 36.25 C9.2921524 37.19584961 9.48274231 38.14169922 9.67910767 39.11621094 C9.85283905 39.99051758 10.02657043 40.86482422 10.20556641 41.765625 C10.35941803 42.53680664 10.51326965 43.30798828 10.67178345 44.10253906 C11 46 11 46 11 48 C8.36 47.67 5.72 47.34 3 47 C3.04060547 45.48623779 3.04060547 45.48623779 3.08203125 43.94189453 C3.00166356 40.07994022 2.48559151 36.7027163 1.6875 32.9296875 C1.55432373 32.28556915 1.42114746 31.64145081 1.28393555 30.97781372 C0.86248179 28.94211431 0.43211641 26.90846056 0 24.875 C-0.43140458 22.83427298 -0.86066475 20.79319331 -1.28393555 18.75076294 C-1.66713345 16.90289945 -2.05796324 15.05662344 -2.44921875 13.21044922 C-2.933877 10.38542442 -3.11289498 7.85530225 -3 5 C-3.98395752 5.66644531 -4.96791504 6.33289063 -5.98168945 7.01953125 C-9.62788264 9.48648264 -13.2801447 11.94431427 -16.93432617 14.39941406 C-18.51608072 15.46398472 -20.09617063 16.53103304 -21.67456055 17.60058594 C-23.94148307 19.13608231 -26.21421102 20.6626161 -28.48828125 22.1875 C-29.54780754 22.90933472 -29.54780754 22.90933472 -30.6287384 23.64575195 C-35.65838488 27 -35.65838488 27 -39 27 C-34.86602883 23.57440752 -30.52439271 20.56877575 -26.07421875 17.578125 C-25.32662796 17.07327576 -24.57903717 16.56842651 -23.80879211 16.04827881 C-21.43637407 14.44684661 -19.06197291 12.84838341 -16.6875 11.25 C-15.07213347 10.16035214 -13.45689768 9.07051044 -11.84179688 7.98046875 C-7.89604098 5.31806645 -3.94850464 2.65832386 0 0 Z " fill="#F5D237" transform="translate(221,334)"/>
<path d="M0 0 C4.99071507 1.66500952 9.04151146 4.52508426 13.36328125 7.4453125 C14.15526413 7.97518768 14.94724701 8.50506287 15.76322937 9.05099487 C18.28258408 10.73800516 20.79757378 12.43139681 23.3125 14.125 C25.02380422 15.27255953 26.73538967 16.41969978 28.44726562 17.56640625 C32.63478476 20.37275629 36.81840184 23.18483582 41 26 C38.63707344 28.52588702 37.33537489 29.88820837 34 31 C31.40143087 29.52862413 29.00873991 28.01159378 26.55859375 26.3203125 C25.83511246 25.83295624 25.11163116 25.34559998 24.3662262 24.84347534 C22.04996841 23.28026805 19.74365716 21.70306115 17.4375 20.125 C15.12573262 18.55726902 12.81205909 16.9923856 10.49806213 15.427948 C9.05728107 14.45229877 7.61821364 13.47411333 6.18101501 12.49319458 C2.68938887 10.08254416 2.68938887 10.08254416 -1 8 C-0.67 5.36 -0.34 2.72 0 0 Z " fill="#F8D436" transform="translate(289,334)"/>
<path d="M0 0 C3.42559248 4.13397117 6.43122425 8.47560729 9.421875 12.92578125 C9.92672424 13.67337204 10.43157349 14.42096283 10.95172119 15.19120789 C12.55315339 17.56362593 14.15161659 19.93802709 15.75 22.3125 C16.83964786 23.92786653 17.92948956 25.54310232 19.01953125 27.15820312 C21.68193355 31.10395902 24.34167614 35.05149536 27 39 C24.4345406 41.5654594 22.52313332 41.54046087 19 42 C18.42894531 41.06542969 17.85789063 40.13085938 17.26953125 39.16796875 C10.52006539 28.20609033 3.34090984 17.57312733 -4 7 C-2.68 4.69 -1.36 2.38 0 0 Z " fill="#F9D536" transform="translate(151,182)"/>
<path d="M0 0 C-0.19577637 1.00861084 -0.19577637 1.00861084 -0.39550781 2.03759766 C-3.36220268 17.34127493 -6.24796398 32.65624612 -9 48 C-10.32 47.34 -11.64 46.68 -13 46 C-12.25235934 37.52989384 -10.58693873 29.26645255 -8.9375 20.9375 C-8.65266001 19.48509166 -8.36815212 18.03261814 -8.08398438 16.58007812 C-7.39314979 13.05262589 -6.6978262 9.52607661 -6 6 C-16.98598218 8.17496439 -16.98598218 8.17496439 -27.5625 11.75 C-28.17182373 11.99951416 -28.78114746 12.24902832 -29.40893555 12.50610352 C-34.99556208 14.85764488 -40.24811969 17.74153059 -45.48828125 20.77734375 C-46.73158203 21.38255859 -46.73158203 21.38255859 -48 22 C-48.66 21.67 -49.32 21.34 -50 21 C-36.21389255 11.50051034 -17.32393346 0 0 0 Z " fill="#F6D337" transform="translate(232,130)"/>
<path d="M0 0 C-3.58934248 18.44260838 -10.163006 34.6225062 -21 50 C-21.33 49.34 -21.66 48.68 -22 48 C-20.86069277 45.50136061 -19.66293536 43.1081235 -18.375 40.6875 C-12.45217441 29.18464072 -8.34606081 17.46828246 -5 5 C-5.61818604 5.13575439 -6.23637207 5.27150879 -6.87329102 5.41137695 C-12.92975902 6.73958428 -18.98858311 8.05644664 -25.04980469 9.36279297 C-26.86611377 9.75509409 -28.68197368 10.14949012 -30.49707031 10.54736328 C-32.55883632 10.99845926 -34.62256747 11.43867193 -36.6875 11.875 C-38.39486328 12.24238281 -38.39486328 12.24238281 -40.13671875 12.6171875 C-42.86349658 12.98174988 -44.50071147 13.13550814 -47 12 C-47.33 11.01 -47.66 10.02 -48 9 C-47.13947021 8.83395264 -46.27894043 8.66790527 -45.39233398 8.49682617 C-42.12126052 7.86538963 -38.85027597 7.23349609 -35.5793457 6.60131836 C-34.17833801 6.33063467 -32.77729765 6.06011997 -31.3762207 5.78979492 C-29.33275322 5.39549308 -27.28939613 5.00062523 -25.24609375 4.60546875 C-24.23027725 4.40919388 -24.23027725 4.40919388 -23.19393921 4.20895386 C-19.69171547 3.53003345 -16.19217128 2.83983396 -12.69580078 2.13134766 C-12.00712418 1.99199295 -11.31844757 1.85263824 -10.60890198 1.70906067 C-8.70512348 1.32259691 -6.80188563 0.93347261 -4.89868164 0.54418945 C-2 0 -2 0 0 0 Z " fill="#F6D237" transform="translate(382,280)"/>
<path d="M0 0 C4.83401796 4.56505355 8.18084136 9.96896684 11.8125 15.5 C12.51826172 16.54542969 13.22402344 17.59085938 13.95117188 18.66796875 C14.61310547 19.67472656 15.27503906 20.68148437 15.95703125 21.71875 C16.86932495 23.09450195 16.86932495 23.09450195 17.80004883 24.49804688 C19 27 19 27 18.8190918 29.18945312 C17.6957946 31.6724254 16.00440971 33.18956542 14 35 C13.48953125 33.906875 12.9790625 32.81375 12.453125 31.6875 C9.68536727 26.15198455 6.219992 21.11330121 2.75 16 C2.1003125 15.03449219 1.450625 14.06898438 0.78125 13.07421875 C-0.80830225 10.71326614 -2.40211421 8.35531686 -4 6 C-2.68 4.02 -1.36 2.04 0 0 Z " fill="#7FD0F4" transform="translate(122,139)"/>
<path d="M0 0 C3.34648106 1.06681393 5.76519229 2.67638312 8.65356445 4.67602539 C9.20139084 5.05194321 9.74921722 5.42786102 10.31364441 5.81517029 C12.05086292 7.00984245 13.77994031 8.21572489 15.5090332 9.42211914 C16.69015338 10.23732683 17.87178899 11.05178828 19.05395508 11.86547852 C21.94083124 13.85492201 24.82052104 15.85449198 27.6965332 17.85961914 C26.0465332 19.50961914 24.3965332 21.15961914 22.6965332 22.85961914 C16.33091636 19.45684898 10.29513763 15.71956134 4.3215332 11.67211914 C3.13237305 10.87257813 3.13237305 10.87257813 1.91918945 10.05688477 C0.46057859 9.07583939 -0.99707048 8.09336115 -2.45336914 7.10888672 C-4.06610106 6.01989896 -5.68432203 4.93904898 -7.3034668 3.85961914 C-3.01504819 -0.18374697 -3.01504819 -0.18374697 0 0 Z " fill="#7FD0F5" transform="translate(345.303466796875,371.140380859375)"/>
<path d="M0 0 C13.6332574 0.77904328 13.6332574 0.77904328 20 3 C21.64006048 9.66957927 22.51358785 16.15182898 23 23 C20.525 24.485 20.525 24.485 18 26 C17.49490792 23.75113762 16.99610821 21.50086131 16.5 19.25 C16.2215625 17.99703125 15.943125 16.7440625 15.65625 15.453125 C15 12 15 12 15 8 C9.06 7.01 3.12 6.02 -3 5 C-2.01 3.35 -1.02 1.7 0 0 Z " fill="#699E3A" transform="translate(195,294)"/>
<path d="M0 0 C0.66 0.33 1.32 0.66 2 1 C1.5153125 1.72960937 1.030625 2.45921875 0.53125 3.2109375 C-10.57527559 20.51148698 -18.04912218 39.60811298 -21 60 C-22.98 60.495 -22.98 60.495 -25 61 C-24.90330791 39.05089666 -12.34112567 17.37367486 0 0 Z " fill="#82D1F5" transform="translate(134,175)"/>
<path d="M0 0 C0.66 0.33 1.32 0.66 2 1 C-13.54668081 12.95898524 -36.97579618 25 -57 25 C-56.67 23.68 -56.34 22.36 -56 21 C-55.34217529 20.86013672 -54.68435059 20.72027344 -54.0065918 20.57617188 C-35.40531278 16.55147562 -18.27204983 11.48432927 -2.15234375 1.15234375 C-1.44207031 0.77207031 -0.73179687 0.39179688 0 0 Z " fill="#7FCDF0" transform="translate(333,378)"/>
<path d="M0 0 C0 3 0 3 -1.875 5.1875 C-4 7 -4 7 -6 7 C-7.31063905 7.76557212 -8.58748136 8.58954682 -9.84375 9.44140625 C-10.97103516 10.19260742 -10.97103516 10.19260742 -12.12109375 10.95898438 C-13.70884397 12.02921667 -15.29478186 13.10214252 -16.87890625 14.17773438 C-17.63042969 14.67724609 -18.38195312 15.17675781 -19.15625 15.69140625 C-19.84525391 16.15748291 -20.53425781 16.62355957 -21.24414062 17.10375977 C-21.82357422 17.39951904 -22.40300781 17.69527832 -23 18 C-23.66 17.67 -24.32 17.34 -25 17 C-16.75 11.39 -8.5 5.78 0 0 Z " fill="#6E9D43" transform="translate(361,150)"/>
<path d="M0 0 C-4.95 2.475 -4.95 2.475 -10 5 C-8 1 -8 1 -6.125 -0.3125 C-4 -1 -4 -1 0 0 Z " fill="#85D4F7" transform="translate(323,387)"/>
<path d="M0 0 C0.66 0.33 1.32 0.66 2 1 C0.68 3.64 -0.64 6.28 -2 9 C-2.66 8.67 -3.32 8.34 -4 8 C-2.25 2.25 -2.25 2.25 0 0 Z " fill="#7BC4E4" transform="translate(415,331)"/>
<path d="M0 0 C0.66 0.33 1.32 0.66 2 1 C-0.39509338 3.89932357 -2.31245243 4.50168276 -6 5 C-6 4.34 -6 3.68 -6 3 C-4.03533587 1.93224776 -2.03144641 0.93446535 0 0 Z " fill="#7BC5E6" transform="translate(180,95)"/>
</svg>
