<?xml version="1.0" encoding="UTF-8"?>
<svg version="1.1" xmlns="http://www.w3.org/2000/svg" width="256" height="256">
<path d="M0 0 C1.14339844 -0.01933594 2.28679687 -0.03867188 3.46484375 -0.05859375 C11.46409386 1.0444516 16.72652432 5.52079267 22.1875 11.171875 C22.81986572 11.80990051 23.45223145 12.44792603 24.10375977 13.10528564 C26.09968871 15.12340944 28.08116727 17.15505477 30.0625 19.1875 C31.42224181 20.56732854 32.78291058 21.94624425 34.14453125 23.32421875 C37.46132741 26.68485785 40.76524704 30.05768871 44.0625 33.4375 C44.07651855 32.15117676 44.07651855 32.15117676 44.09082031 30.83886719 C44.13491291 27.64777321 44.19656056 24.45763244 44.27001953 21.26708984 C44.29819099 19.88798349 44.31942472 18.50871682 44.33349609 17.12939453 C44.35497545 15.14327051 44.40373132 13.15750091 44.453125 11.171875 C44.47407227 9.97788086 44.49501953 8.78388672 44.51660156 7.55371094 C45.0625 4.4375 45.0625 4.4375 46.53808594 2.05200195 C50.29997235 -0.35393178 53.67981828 -0.15473022 58.0625 -0.12890625 C58.93519531 -0.13510483 59.80789062 -0.14130341 60.70703125 -0.14768982 C62.54946783 -0.15478388 64.39196857 -0.15162116 66.234375 -0.13891602 C69.0532824 -0.12504536 71.86887276 -0.15912952 74.6875 -0.19726562 C76.47916748 -0.19821681 78.27083911 -0.19635805 80.0625 -0.19140625 C80.90425781 -0.20466446 81.74601563 -0.21792267 82.61328125 -0.23158264 C83.79470703 -0.21278297 83.79470703 -0.21278297 85 -0.19360352 C86.03447266 -0.19216087 86.03447266 -0.19216087 87.08984375 -0.19068909 C90.30272352 0.83244711 91.35576771 2.59585394 93.0625 5.4375 C93.37287903 8.79135132 93.37287903 8.79135132 93.11645508 12.67333984 C93.03610628 14.15015664 92.95625005 15.6270003 92.8768158 17.10386658 C92.82750349 17.8836833 92.77819118 18.66350002 92.72738457 19.46694756 C88.54498592 59.26316994 88.54498592 59.26316994 100.91015625 95.25390625 C106.38018825 101.39776057 112.95858079 106.68729795 120.02210999 110.90956116 C124.93515817 113.86622587 126.37851063 116.13783079 128.0625 121.4375 C128.92406311 128.32224304 129.15578729 135.5988348 125.4609375 141.69140625 C121.3653219 146.80520561 116.65815088 151.22605392 110.0625 152.4375 C108.49911257 152.47536868 106.93488768 152.48541613 105.37109375 152.47265625 C104.15957642 152.46504272 104.15957642 152.46504272 102.92358398 152.45727539 C102.30942627 152.45074951 101.69526855 152.44422363 101.0625 152.4375 C101.07138245 153.44259613 101.08026489 154.44769226 101.0894165 155.48324585 C101.17074187 164.98669614 101.23057992 174.4900752 101.26974869 183.99379539 C101.29056323 188.87898718 101.31876803 193.76389651 101.36425781 198.64892578 C101.40793535 203.36924617 101.43168316 208.08929603 101.44200897 212.80980301 C101.4493612 214.6046232 101.46371788 216.39942972 101.48542023 218.19413376 C101.61218473 229.11826545 101.59408746 238.59231575 94.8125 247.75 C85.94214832 256.41875278 78.05055625 256.68010179 66.0625 256.8125 C64.77859375 256.84988281 63.4946875 256.88726562 62.171875 256.92578125 C60.32335937 256.94318359 60.32335937 256.94318359 58.4375 256.9609375 C57.31085938 256.98075684 56.18421875 257.00057617 55.0234375 257.02099609 C52.0625 256.4375 52.0625 256.4375 49.90582275 254.36680603 C47.66699564 250.80898645 47.52276957 248.05382792 47.60839844 243.98510742 C47.60781433 243.2528595 47.60723022 242.52061157 47.60662842 241.76617432 C47.60940402 239.35794841 47.64046898 236.95097705 47.671875 234.54296875 C47.67933931 232.86860327 47.68503135 231.19422903 47.68902588 229.51985168 C47.70426739 225.12199606 47.74353604 220.72467242 47.7878418 216.32702637 C47.82882673 211.83592932 47.84704375 207.34474595 47.8671875 202.85351562 C47.91003222 194.04790625 47.98036956 185.24283068 48.0625 176.4375 C37.5025 176.4375 26.9425 176.4375 16.0625 176.4375 C16.08344727 178.71881836 16.10439453 181.00013672 16.12597656 183.35058594 C16.19224175 190.88623492 16.23643342 198.42189674 16.26974869 205.95775986 C16.29062765 210.52700964 16.31895071 215.09596102 16.36425781 219.66503906 C16.40770488 224.07410873 16.43163478 228.4828913 16.44200897 232.89215851 C16.44940243 234.57471487 16.46384017 236.25725543 16.48542023 237.93968964 C16.51444003 240.29575101 16.51845675 242.65062473 16.51660156 245.00683594 C16.53098267 245.70311096 16.54536377 246.39938599 16.56018066 247.11676025 C16.53375258 250.21668768 16.20289863 252.20670637 14.58239746 254.87055969 C10.92709388 257.1435262 7.46274553 256.98761976 3.29003906 256.93920898 C1.96244568 256.94731346 1.96244568 256.94731346 0.60803223 256.95558167 C-2.31894344 256.96809173 -5.24493947 256.95155741 -8.171875 256.93359375 C-10.20965629 256.93374874 -12.24743787 256.93523772 -14.28521729 256.93800354 C-18.55909232 256.93938874 -22.8326323 256.92681337 -27.10644531 256.90405273 C-32.57172524 256.87573995 -38.03644534 256.87838433 -43.5017662 256.89114285 C-47.71238947 256.89811729 -51.92288461 256.89028936 -56.13349152 256.87788582 C-58.14762123 256.87338339 -60.16176477 256.87302391 -62.17589569 256.87695122 C-65.0000344 256.87987887 -67.82341792 256.86327982 -70.64746094 256.84155273 C-71.4726825 256.84605438 -72.29790405 256.85055603 -73.14813232 256.85519409 C-80.98681013 256.75556963 -87.47720659 254.60910724 -93.33203125 249.25 C-99.47249261 242.317703 -101.09411597 235.47357387 -101.05102539 226.45605469 C-101.05117142 225.6556778 -101.05131744 224.8553009 -101.0514679 224.03067017 C-101.0507723 221.39021069 -101.0429964 218.74982212 -101.03515625 216.109375 C-101.03329082 214.27663207 -101.03186751 212.44388863 -101.03086853 210.61114502 C-101.02705322 205.79100158 -101.01723133 200.97088835 -101.00616455 196.15075684 C-100.99592925 191.23071705 -100.99136637 186.31067237 -100.98632812 181.390625 C-100.97560819 171.73957007 -100.95854359 162.08853755 -100.9375 152.4375 C-101.55700531 152.44438843 -102.17651062 152.45127686 -102.81478882 152.45837402 C-103.62662628 152.46373169 -104.43846375 152.46908936 -105.27490234 152.47460938 C-106.48259781 152.48494202 -106.48259781 152.48494202 -107.71469116 152.4954834 C-112.95250435 152.35885167 -117.17224992 150.04808055 -120.98828125 146.56640625 C-126.16952191 140.8917141 -128.22665369 136.41126047 -128.3125 128.625 C-128.34085938 127.46355469 -128.36921875 126.30210938 -128.3984375 125.10546875 C-127.14757738 115.15159032 -120.29685498 109.22178749 -113.49682617 102.47924805 C-112.42303512 101.40002933 -111.35009523 100.31996318 -110.27793884 99.23912048 C-107.37799218 96.32101652 -104.46562974 93.41561363 -101.55024505 90.51294303 C-98.49390201 87.46676445 -95.4473727 84.41079569 -92.39924622 81.35639954 C-87.28106609 76.23095414 -82.15453695 71.11397334 -77.02319336 66.00170898 C-71.09782788 60.09812161 -65.18702542 54.18024693 -59.28355807 48.25476807 C-54.20542626 43.15846425 -49.11951576 38.07002193 -44.02706319 32.98802787 C-40.9895167 29.95670487 -37.95470756 26.92277398 -34.92690086 23.88171959 C-32.08033654 21.02357083 -29.22410756 18.17544118 -26.36023903 15.33463478 C-25.31315109 14.29281954 -24.26942181 13.24761564 -23.22940063 12.19874573 C-15.90037362 4.81314921 -10.81586678 0.01216633 0 0 Z " fill="#030202" transform="translate(127.9375,-0.4375)"/>
<path d="M0 0 C4.55022479 2.12387021 8.11684865 5.1419469 11.98144531 8.31030273 C13.18164952 9.29393689 13.18164952 9.29393689 14.40610027 10.29744244 C24.96716584 19.03121424 35.19144093 28.13143259 45.25 37.4375 C46.21793362 38.3314938 47.18586723 39.22548759 48.18313217 40.14657211 C71.92425288 62.28355843 90.49604404 82.19497283 91.85745239 115.82844543 C91.96943099 122.01047212 91.71450084 128.14452483 91.3125 134.3125 C91.2486763 135.3204298 91.1848526 136.3283596 91.11909485 137.36683273 C90.43243737 147.43490437 89.35121802 157.43239187 87.6418457 167.38012695 C87.52401356 168.08442054 87.40618141 168.78871412 87.28477859 169.51434994 C86.30011774 174.75594062 84.90386804 178.58430325 80.5625 181.8125 C76.96558835 183.01147055 74.53219875 183.12245556 70.77734375 183.07421875 C69.69573975 183.06350342 68.61413574 183.05278809 67.49975586 183.04174805 C66.67483643 183.02797119 65.84991699 183.01419434 65 183 C64.99413376 182.06927673 64.98826752 181.13855347 64.98222351 180.17962646 C64.92501892 171.40988093 64.85226931 162.64038391 64.76428509 153.87089157 C64.71955098 149.36235083 64.68030164 144.85390108 64.65356445 140.34521484 C64.62756168 135.99434112 64.58718098 131.643817 64.53681374 127.29315948 C64.52012448 125.63302203 64.50862303 123.97282407 64.50238609 122.31261444 C64.49276715 119.9876589 64.46473587 117.66360192 64.43237305 115.33886719 C64.43380814 114.6519429 64.43524323 113.96501862 64.4367218 113.25727844 C64.37936034 110.34504402 64.09793699 108.19932078 62.80683899 105.57168579 C60.35356658 103.43769742 58.88776685 103.50458582 55.65820312 103.51416016 C54.56697144 103.5080069 53.47573975 103.50185364 52.35144043 103.49551392 C51.17327759 103.50988495 49.99511475 103.52425598 48.78125 103.5390625 C47.57182739 103.53997894 46.36240479 103.54089539 45.11633301 103.5418396 C42.55749593 103.54788569 39.99866625 103.56366158 37.43994141 103.58837891 C33.51568624 103.6248542 29.59237559 103.62939859 25.66796875 103.62890625 C23.18488765 103.63873813 20.70181296 103.65039544 18.21875 103.6640625 C17.04058716 103.66628815 15.86242432 103.66851379 14.64855957 103.67080688 C13.55732788 103.68356659 12.46609619 103.69632629 11.34179688 103.70947266 C10.38043823 103.71709625 9.41907959 103.72471985 8.42858887 103.73257446 C5.74150559 103.83989344 5.74150559 103.83989344 3 106 C2.68362065 108.51033113 2.56256327 110.78025094 2.56762695 113.29541016 C2.5574353 114.04672714 2.54724365 114.79804413 2.53674316 115.5721283 C2.50649352 118.06118103 2.49732928 120.54984973 2.48828125 123.0390625 C2.47144338 124.7625762 2.45329435 126.48607756 2.43388367 128.20956421 C2.38628044 132.75020489 2.35653807 137.29079555 2.33044434 141.831604 C2.30069068 146.46335742 2.25414264 151.09493819 2.20898438 155.7265625 C2.12283396 164.81761822 2.0555411 173.90870937 2 183 C-8.08353889 183.06953295 -18.16702067 183.12282804 -28.25075054 183.15543652 C-32.93312236 183.17108754 -37.61533006 183.19231556 -42.29760742 183.22631836 C-46.81689376 183.25893186 -51.33602231 183.27685725 -55.85541725 183.28463173 C-57.57899268 183.29017166 -59.30255954 183.30098984 -61.02606773 183.31719017 C-63.4416401 183.33899113 -65.85656176 183.34196585 -68.2722168 183.34057617 C-68.98359802 183.351362 -69.69497925 183.36214783 -70.42791748 183.3732605 C-74.80464518 183.34604365 -77.58161965 182.77750649 -81 180 C-83.96461258 176.158206 -84.86388441 172.10495841 -85.67358398 167.41186523 C-85.80704727 166.65684314 -85.94051056 165.90182104 -86.07801819 165.12391949 C-87.78608046 154.95233312 -88.76465418 144.72492791 -89.4375 134.4375 C-89.50523621 133.43552456 -89.57297241 132.43354912 -89.64276123 131.40121078 C-91.22953925 104.88371141 -87.1560592 84.17732786 -69.37849313 63.79664344 C-60.75797316 54.11399529 -51.52668454 45.09548711 -42 36.3125 C-41.49833108 35.84910768 -40.99666217 35.38571536 -40.47979116 34.90828085 C-27.37009398 22.81815249 -13.88391242 11.19370657 0 0 Z " fill="#E5EEED" transform="translate(127,58)"/>
<path d="M0 0 C6.68789424 4.76586007 12.38338254 11.24118739 18.16381836 17.03442383 C19.15823125 18.02747871 20.1528561 19.02032138 21.14767456 20.01296997 C23.82513044 22.68590265 26.49945686 25.36194532 29.17305827 28.03873277 C31.97776512 30.84598556 34.78492699 33.65078175 37.59169006 36.45597839 C42.29640483 41.15887977 46.99901993 45.86387293 51.70043945 50.57006836 C57.13821586 56.0133048 62.57961094 61.45290389 68.02286237 66.89066488 C72.70339684 71.56666715 77.38198717 76.24460794 82.05894572 80.92418689 C84.84959736 83.71639828 87.64092215 86.50792771 90.43400383 89.29770851 C93.05382771 91.91465151 95.6712081 94.53401374 98.28669357 97.15529251 C99.70774639 98.5783047 101.13127117 99.99884697 102.55485535 101.41932678 C103.39449829 102.26178955 104.23414124 103.10425232 105.09922791 103.97224426 C105.83272429 104.70611768 106.56622068 105.43999109 107.32194424 106.1961031 C109.48864313 108.52528757 109.95816148 109.62345333 110.3125 112.8125 C109.91034486 116.91448247 109.18026445 118.36270753 106 121 C102.84865441 121.86193422 100.16891269 121.76404865 97 121 C93.28466498 118.57347824 90.35576755 115.4836227 87.28930664 112.29516602 C86.36461578 111.37018311 85.43992493 110.4452002 84.48721313 109.4921875 C81.96103119 106.96432231 79.46344821 104.40982284 76.97005391 101.84966779 C74.35434145 99.17381703 71.71256355 96.52395907 69.073349 93.87132263 C64.08202535 88.84690547 59.11366088 83.80042387 54.15356582 78.74519533 C47.40785923 71.87226335 40.63010306 65.03111726 33.85327804 58.18889225 C32.2276339 56.54749798 30.60210611 54.90598863 28.97666931 53.26438904 C28.44985909 52.732373 27.92304888 52.20035697 27.38027471 51.65221924 C24.24528781 48.48481686 21.11577931 45.31212029 17.99123871 42.13441288 C16.51818337 40.63638449 15.04416479 39.13931055 13.56985474 37.64251709 C11.77037587 35.81481492 9.97288034 33.98515723 8.1776886 32.15324402 C7.38860107 31.35252472 6.59951355 30.55180542 5.78651428 29.7268219 C5.09948457 29.02718102 4.41245485 28.32754015 3.70460606 27.60669804 C1.56142444 25.58661505 0.28012917 25.05335794 -2.625 24.5 C-10.67570374 25.69269685 -17.44518732 35.35112971 -22.93530273 40.96459961 C-24.70508894 42.76401535 -26.47498635 44.56332173 -28.24497986 46.36253357 C-29.18108212 47.31584 -30.11715179 48.26917844 -31.05319023 49.22254753 C-33.96935386 52.19086448 -36.8939946 55.15073127 -39.82081604 58.10853577 C-40.56491538 58.86057035 -40.56491538 58.86057035 -41.32404703 59.62779754 C-42.84941305 61.16926376 -44.37489339 62.71061677 -45.90039062 64.25195312 C-52.19157755 70.60870731 -58.47641417 76.97133116 -64.7355957 83.35961914 C-69.31841236 88.03684329 -73.91700788 92.69788848 -78.53463322 97.34075934 C-80.97208862 99.79277001 -83.40084839 102.252169 -85.81051445 104.7315197 C-88.49439096 107.49264335 -91.21297966 110.2179108 -93.93530273 112.94116211 C-95.11623756 114.17298973 -95.11623756 114.17298973 -96.32102966 115.42970276 C-100.02397557 119.07867639 -102.55469604 121.48203821 -107.90638733 121.63648987 C-111.20660872 121.41732997 -111.89483683 121.08720848 -114.5625 118.875 C-116.33033071 115.33933859 -116.84034017 113.89612263 -116 110 C-111.1373253 103.34803697 -104.7803225 97.63807982 -98.96557617 91.83618164 C-97.97252129 90.84176875 -96.97967862 89.8471439 -95.98703003 88.85232544 C-93.31409735 86.17486956 -90.63805468 83.50054314 -87.96126723 80.82694173 C-85.15401444 78.02223488 -82.34921825 75.21507301 -79.54402161 72.40830994 C-74.84112023 67.70359517 -70.13612707 63.00098007 -65.42993164 58.29956055 C-59.9866952 52.86178414 -54.54709611 47.42038906 -49.10933512 41.97713763 C-44.43333285 37.29660316 -39.75539206 32.61801283 -35.07581311 27.94105428 C-32.28360172 25.15040264 -29.49207229 22.35907785 -26.70229149 19.56599617 C-24.08534849 16.94617229 -21.46598626 14.3287919 -18.84470749 11.71330643 C-17.4216953 10.29225361 -16.00115303 8.86872883 -14.58067322 7.44514465 C-13.73821045 6.60550171 -12.89574768 5.76585876 -12.02775574 4.90077209 C-11.29388232 4.16727571 -10.56000891 3.43377932 -9.8038969 2.67805576 C-6.60405357 -0.29856421 -4.31473272 -0.63921966 0 0 Z " fill="#FD893B" transform="translate(131,15)"/>
<path d="M0 0 C1.2757489 -0.00361794 1.2757489 -0.00361794 2.57727051 -0.00730896 C4.37268748 -0.00633091 6.16813475 0.00705294 7.96337891 0.03198242 C10.70970213 0.06629321 13.45280743 0.05264108 16.19921875 0.03320312 C17.94532618 0.04010177 19.69142531 0.04977432 21.4375 0.0625 C22.25738403 0.05754013 23.07726807 0.05258026 23.92199707 0.04747009 C27.45814753 0.12042465 29.65073734 0.29295393 32.73217773 2.11547852 C34.93417829 5.83851937 34.81090387 9.15398358 34.78515625 13.41015625 C34.79445412 14.68590515 34.79445412 14.68590515 34.80393982 15.98742676 C34.81103304 17.78278459 34.80787259 19.57820827 34.79516602 21.37353516 C34.78129475 24.12004572 34.81538047 26.86315194 34.85351562 29.609375 C34.85446681 31.35546958 34.85260803 33.10156843 34.84765625 34.84765625 C34.86091446 35.66754028 34.87417267 36.48742432 34.88783264 37.33215332 C34.82439088 41.21767448 34.68873461 43.04119734 32.20703125 46.14453125 C28.36366436 48.05365467 24.97784294 48.20427067 20.77734375 48.16015625 C19.97265152 48.16398315 19.16795929 48.16781006 18.33888245 48.17175293 C16.64363346 48.1744665 14.9483422 48.16714417 13.25317383 48.15039062 C10.66067212 48.12894283 8.07093241 48.15022325 5.47851562 48.17578125 C3.8281189 48.17313842 2.17772389 48.16801437 0.52734375 48.16015625 C-0.24565567 48.16825317 -1.01865509 48.1763501 -1.81507874 48.18469238 C-5.38116185 48.1226162 -7.38085019 47.93989949 -10.23803711 45.72070312 C-13.13354237 41.79589865 -12.97365883 38.46292409 -13.01953125 33.734375 C-13.027603 32.95000565 -13.03567474 32.16563629 -13.04399109 31.35749817 C-13.05783062 29.69562998 -13.06855337 28.03373338 -13.07641602 26.37182617 C-13.09361353 23.8365249 -13.13749655 21.30253311 -13.18164062 18.76757812 C-13.19176915 17.15235333 -13.20028476 15.53711746 -13.20703125 13.921875 C-13.22453934 13.16649948 -13.24204742 12.41112396 -13.26008606 11.63285828 C-13.24592509 8.17721506 -12.84451066 5.75643087 -11.3034668 2.64990234 C-7.62925227 -0.29416385 -4.58643373 -0.07416646 0 0 Z " fill="#020303" transform="translate(76.78125,144.37109375)"/>
<path d="M0 0 C5.61 0 11.22 0 17 0 C17 16.83 17 33.66 17 51 C9.69048367 47.34524183 3.2299306 43.86197134 0 36 C-2.13663388 24.34890096 -0.72253762 11.72734143 0 0 Z " fill="#C56A34" transform="translate(188,15)"/>
<path d="M0 0 C4.1765625 -0.0309375 4.1765625 -0.0309375 8.4375 -0.0625 C9.75512329 -0.07615601 9.75512329 -0.07615601 11.09936523 -0.09008789 C13.06645974 -0.09723091 15.03353621 -0.05031893 17 0 C18 1 18 1 18.09765625 4.81640625 C18.09191138 6.39847047 18.07889593 7.98051031 18.0625 9.5625 C18.041875 12.346875 18.02125 15.13125 18 18 C12.06 18 6.12 18 0 18 C0 12.06 0 6.12 0 0 Z " fill="#98D5E3" transform="translate(79,159)"/>
</svg>
