<?xml version="1.0" encoding="UTF-8"?>
<svg version="1.1" xmlns="http://www.w3.org/2000/svg" width="512" height="512">
<path d="M0 0 C4.43252651 1.32400142 6.97473381 0.54844759 11.3125 -0.9375 C31.19864567 -6.91630795 50.78598911 -2.97107324 68.84375 6.12109375 C71.36448178 7.62167789 72.90032404 8.81828227 74.9453125 10.796875 C77.84982707 13.37379226 77.84982707 13.37379226 81.5234375 12.83203125 C82.79445313 12.49558594 84.06546875 12.15914062 85.375 11.8125 C105.14796355 7.21755246 123.6375168 10.70925822 141 21 C149.10065637 26.21449437 158.65125263 34.30250526 163 43 C165.74584162 43.80037087 168.47381382 44.51052476 171.25 45.1875 C189.63956999 50.00857892 205.4083847 60.71553327 215.25146484 77.21899414 C223 90.68176197 223 90.68176197 223 97 C223.59425781 97.28101563 224.18851562 97.56203125 224.80078125 97.8515625 C237.7892016 104.6341479 245.49236743 119.62056401 250 133 C252.05645555 139.87286969 252.34711237 146.54600431 252.3125 153.6875 C252.31338623 154.74533691 252.31427246 155.80317383 252.31518555 156.89306641 C252.2402874 163.93133686 251.54073101 170.08416355 249.36328125 176.8046875 C248.90555532 180.83070697 249.99511303 183.54169586 251.25512695 187.34130859 C252.46961126 191.6761936 252.48970144 195.89810519 252.4375 200.375 C252.42614014 201.75244385 252.42614014 201.75244385 252.41455078 203.15771484 C252.2401454 210.36434873 251.11982538 216.44738871 248 223 C247.59910156 223.90492188 247.19820313 224.80984375 246.78515625 225.7421875 C236.99487288 245.77679636 216.81677599 258.76257927 196.3125 265.875 C169.30209834 274.19914079 143.27519644 273.23730457 116 267 C115.54753906 267.93356323 115.54753906 267.93356323 115.0859375 268.88598633 C107.85173494 282.96893595 92.13979376 292.31647552 77.5859375 297.12890625 C74.73107284 297.87695307 71.90661558 298.49374263 69 299 C68.28585937 299.12890625 67.57171875 299.2578125 66.8359375 299.390625 C58.92340242 300.58853868 51.73784477 300.15783424 43.9375 298.5625 C39.11271181 297.76098742 39.11271181 297.76098742 34.59765625 299.1796875 C33.16127408 300.38335971 31.76229343 301.63269931 30.3984375 302.91796875 C22.92652175 309.40417574 12.54805018 313.0305177 3 315 C1.906875 315.226875 0.81375 315.45375 -0.3125 315.6875 C-21.11614851 317.45052106 -39.62937983 313.25362688 -56.28125 300.34375 C-59 298 -59 298 -60.38134766 296.44873047 C-64.36132106 291.98797304 -67.55364823 290.9839292 -73.375 290.125 C-92.26243244 286.58142799 -107.00236515 276.32444787 -118.16015625 260.76171875 C-123 253.49681529 -123 253.49681529 -123 251 C-132.3906785 251.75333244 -139.41738341 253.33740629 -147.92578125 257.53515625 C-162.61834481 264.53606011 -182.23045974 264.20224008 -197.5859375 259.31640625 C-217.55464531 251.61680152 -231.6056584 239.27661725 -240.78515625 219.82421875 C-244.98649962 210.0571086 -246.18071269 201.2824935 -246.1875 190.6875 C-246.20586914 189.19573242 -246.20586914 189.19573242 -246.22460938 187.67382812 C-246.23531724 182.23780138 -245.76224877 177.45645735 -244.43432617 172.19604492 C-243.65366742 168.2488693 -243.92666485 164.31474365 -244.0625 160.3125 C-244.35660745 140.79675653 -238.28569244 122.51723241 -224.63110352 108.21459961 C-220.87698032 104.41022667 -217.29422201 100.91974205 -212.5 98.4375 C-208.14110373 96.00692204 -207.39575166 92.56178256 -205.9765625 87.96484375 C-200.67854585 71.88006521 -187.94802949 58.48903516 -172.99609375 50.85546875 C-166.76464874 47.9119872 -160.87956133 45.85545806 -154.0625 44.6875 C-147.71335479 43.42079862 -145.12460207 40.571062 -141.15625 35.625 C-130.77328767 22.98487195 -113.95126242 15.88255152 -98 14 C-95.36285265 13.9094313 -92.76018178 13.86009226 -90.125 13.875 C-89.41956055 13.87040771 -88.71412109 13.86581543 -87.98730469 13.86108398 C-84.23728963 13.86497046 -80.88310032 14.17751403 -77.25 15.0625 C-74.04591405 15.5115575 -73.05927199 15.03721338 -70.25 13.2734375 C-68.20524533 11.68129779 -66.17974933 10.06418632 -64.171875 8.42578125 C-59.184007 4.61116792 -53.83703037 2.24004118 -48 0 C-47.12730469 -0.3403125 -46.25460938 -0.680625 -45.35546875 -1.03125 C-31.41569419 -5.43972922 -13.78784695 -4.58012816 0 0 Z " fill="#8BADDB" transform="translate(253,34)"/>
<path d="M0 0 C4.43252651 1.32400142 6.97473381 0.54844759 11.3125 -0.9375 C31.19864567 -6.91630795 50.78598911 -2.97107324 68.84375 6.12109375 C71.36448178 7.62167789 72.90032404 8.81828227 74.9453125 10.796875 C77.84982707 13.37379226 77.84982707 13.37379226 81.5234375 12.83203125 C82.79445313 12.49558594 84.06546875 12.15914062 85.375 11.8125 C105.14796355 7.21755246 123.6375168 10.70925822 141 21 C149.10065637 26.21449437 158.65125263 34.30250526 163 43 C165.74584162 43.80037087 168.47381382 44.51052476 171.25 45.1875 C189.63956999 50.00857892 205.4083847 60.71553327 215.25146484 77.21899414 C223 90.68176197 223 90.68176197 223 97 C223.59425781 97.28101563 224.18851562 97.56203125 224.80078125 97.8515625 C237.7892016 104.6341479 245.49236743 119.62056401 250 133 C252.05645555 139.87286969 252.34711237 146.54600431 252.3125 153.6875 C252.31338623 154.74533691 252.31427246 155.80317383 252.31518555 156.89306641 C252.2402874 163.93133686 251.54073101 170.08416355 249.36328125 176.8046875 C248.90555532 180.83070697 249.99511303 183.54169586 251.25512695 187.34130859 C252.46961126 191.6761936 252.48970144 195.89810519 252.4375 200.375 C252.42614014 201.75244385 252.42614014 201.75244385 252.41455078 203.15771484 C252.2401454 210.36434873 251.11982538 216.44738871 248 223 C247.59910156 223.90492188 247.19820313 224.80984375 246.78515625 225.7421875 C236.99487288 245.77679636 216.81677599 258.76257927 196.3125 265.875 C169.30209834 274.19914079 143.27519644 273.23730457 116 267 C115.54753906 267.93356323 115.54753906 267.93356323 115.0859375 268.88598633 C107.85173494 282.96893595 92.13979376 292.31647552 77.5859375 297.12890625 C74.73107284 297.87695307 71.90661558 298.49374263 69 299 C68.28585937 299.12890625 67.57171875 299.2578125 66.8359375 299.390625 C58.92340242 300.58853868 51.73784477 300.15783424 43.9375 298.5625 C39.11271181 297.76098742 39.11271181 297.76098742 34.59765625 299.1796875 C33.16127408 300.38335971 31.76229343 301.63269931 30.3984375 302.91796875 C22.92652175 309.40417574 12.54805018 313.0305177 3 315 C1.906875 315.226875 0.81375 315.45375 -0.3125 315.6875 C-21.11614851 317.45052106 -39.62937983 313.25362688 -56.28125 300.34375 C-59 298 -59 298 -60.38134766 296.44873047 C-64.36132106 291.98797304 -67.55364823 290.9839292 -73.375 290.125 C-92.26243244 286.58142799 -107.00236515 276.32444787 -118.16015625 260.76171875 C-123 253.49681529 -123 253.49681529 -123 251 C-132.3906785 251.75333244 -139.41738341 253.33740629 -147.92578125 257.53515625 C-162.61834481 264.53606011 -182.23045974 264.20224008 -197.5859375 259.31640625 C-217.55464531 251.61680152 -231.6056584 239.27661725 -240.78515625 219.82421875 C-244.98649962 210.0571086 -246.18071269 201.2824935 -246.1875 190.6875 C-246.20586914 189.19573242 -246.20586914 189.19573242 -246.22460938 187.67382812 C-246.23531724 182.23780138 -245.76224877 177.45645735 -244.43432617 172.19604492 C-243.65366742 168.2488693 -243.92666485 164.31474365 -244.0625 160.3125 C-244.35660745 140.79675653 -238.28569244 122.51723241 -224.63110352 108.21459961 C-220.87698032 104.41022667 -217.29422201 100.91974205 -212.5 98.4375 C-208.14110373 96.00692204 -207.39575166 92.56178256 -205.9765625 87.96484375 C-200.67854585 71.88006521 -187.94802949 58.48903516 -172.99609375 50.85546875 C-166.76464874 47.9119872 -160.87956133 45.85545806 -154.0625 44.6875 C-147.71335479 43.42079862 -145.12460207 40.571062 -141.15625 35.625 C-130.77328767 22.98487195 -113.95126242 15.88255152 -98 14 C-95.36285265 13.9094313 -92.76018178 13.86009226 -90.125 13.875 C-89.41956055 13.87040771 -88.71412109 13.86581543 -87.98730469 13.86108398 C-84.23728963 13.86497046 -80.88310032 14.17751403 -77.25 15.0625 C-74.04591405 15.5115575 -73.05927199 15.03721338 -70.25 13.2734375 C-68.20524533 11.68129779 -66.17974933 10.06418632 -64.171875 8.42578125 C-59.184007 4.61116792 -53.83703037 2.24004118 -48 0 C-47.12730469 -0.3403125 -46.25460938 -0.680625 -45.35546875 -1.03125 C-31.41569419 -5.43972922 -13.78784695 -4.58012816 0 0 Z M-61.16015625 38.1796875 C-64.32563295 41.31156041 -67.48602882 41.13641979 -71.76953125 41.23046875 C-74 41 -74 41 -76.65625 40.01171875 C-86.27651585 37.10091401 -99.45123018 37.59173099 -108.6171875 41.671875 C-118.51765811 47.19017009 -126.16114209 54.03657676 -132.640625 63.30078125 C-134 65 -134 65 -137 67 C-138.78633815 67.1729629 -140.58088959 67.2668055 -142.375 67.3125 C-155.03142068 68.22852562 -166.42099251 73.99219314 -175.09765625 83.234375 C-181.33015496 90.90921418 -184.34803556 98.51042798 -186.77734375 108.046875 C-188.80695803 112.94907434 -192.88545066 114.99602791 -197.25 117.6875 C-207.6210563 124.63025031 -215.54707729 134.01148491 -218.58251953 146.37207031 C-219.01256493 149.07909292 -219.06649348 151.54324704 -218.9921875 154.28125 C-218.96415039 155.78244385 -218.96415039 155.78244385 -218.93554688 157.31396484 C-218.91556641 158.36535645 -218.89558594 159.41674805 -218.875 160.5 C-218.78348989 168.55890981 -219.1498499 175.55029302 -221.32421875 183.3203125 C-223.98780079 193.8822621 -220.90188922 205.52978206 -216 215 C-208.57029265 226.17758194 -197.96131837 234.56848054 -184.625 237.3125 C-172.20333363 239.11198191 -161.41755717 238.17505022 -150.625 231.3125 C-145.75726893 228.40770569 -141.1326698 228.50471969 -135.5703125 228.3125 C-130.91657949 227.90517107 -126.98261756 226.45613523 -122.62109375 224.86328125 C-117.17911874 223.0709169 -112.12650017 223.49636038 -107 226 C-105.84292061 228.45402551 -105.02462495 230.92173655 -104.2109375 233.5078125 C-100.11803093 246.32205269 -92.00080957 256.03752834 -80.22265625 262.53125 C-73.43279164 265.66643581 -66.82607504 266.80282574 -59.4453125 267.4453125 C-53.88126492 268.34111154 -50.13106793 270.30094583 -46.6875 274.75 C-39.88769009 282.87988262 -31.43082661 288.70103386 -21 291 C-6.15335702 292.30882979 7.11740317 290.6660355 19 281 C20.86800467 279.2246543 22.6579549 277.41942723 24.39453125 275.515625 C27.87831537 272.22679717 31.06470452 271.63485265 35.828125 271.73046875 C38.10128601 272.01256967 39.82278761 272.63526296 41.9375 273.5 C52.98809825 277.48890334 66.49119181 275.65471667 77 271 C80.1991438 269.21952414 83.09931882 267.22752732 86 265 C86.86625 264.4225 87.7325 263.845 88.625 263.25 C94.25244956 257.918732 98.43352721 250.84762776 102 244 C102 243.34 102 242.68 102 242 C107.30312522 239.42878777 111.86593682 239.37736687 117.5078125 241.0234375 C118.70148438 241.46945312 119.89515625 241.91546875 121.125 242.375 C146.65564655 251.28307408 175.53592263 248.68707702 199.96875 237.66015625 C212.51746659 231.29767495 222.86298708 221.37110232 227.3046875 207.859375 C229.25775551 199.82765711 228.20550539 193.89792492 224.90234375 186.46875 C222.49780149 179.89008892 223.73918709 173.54911093 226.24609375 167.203125 C229.99762224 156.24010909 228.70497799 144.38435971 224 134 C219.28868633 124.89471503 213.08871934 118.71476512 204.875 112.71875 C201.49121536 109.5188667 200.75866474 107.33385534 199.5625 102.875 C195.72548029 90.01588363 188.59697598 80.20961093 176.99609375 73.1796875 C169.80266891 69.5256042 163.34485201 68.17728367 155.41015625 67.6171875 C150.46438497 66.72207655 147.26618979 64.74980394 144.3125 60.66796875 C143.879375 59.84941406 143.44625 59.03085938 143 58.1875 C136.63958226 47.03633059 127.61471861 39.77201758 115.28515625 35.65625 C104.01763539 33.40542538 91.24403144 33.71496671 80.92578125 39.078125 C78.08843469 40.43636798 76.1128308 40.3735397 73 40 C69.30809243 37.9935285 66.42413843 35.46624263 63.375 32.625 C53.48564989 23.79861267 41.7892904 20.56245053 28.796875 20.7421875 C22.17270648 21.19197672 16.25030281 22.8997487 10.25 25.6875 C3.98133077 28.21907796 -0.13520812 27.09652998 -6.1875 24.5625 C-7.69376953 23.88380859 -7.69376953 23.88380859 -9.23046875 23.19140625 C-27.66818076 15.2598094 -48.51491327 24.28640378 -61.16015625 38.1796875 Z " fill="#4766B0" transform="translate(253,34)"/>
<path d="M0 0 C2.12890625 0.40625 2.12890625 0.40625 4.69140625 2.40625 C7.68602087 8.65588051 6.19435024 14.82157864 4.29296875 21.21875 C-2.62844428 40.17134406 -13.879929 54.73364258 -32.30859375 63.78125 C-42.32135125 68.08781237 -51.99029085 69.99499084 -62.87109375 69.40625 C-63.12503906 70.29441406 -63.37898437 71.18257813 -63.640625 72.09765625 C-65.61039714 77.39415468 -69.20249292 81.17791779 -72.87109375 85.40625 C-73.67546875 86.35564453 -73.67546875 86.35564453 -74.49609375 87.32421875 C-85.49987815 99.34585321 -101.72791567 105.58492754 -117.65625 106.95703125 C-118.63601807 107.04251221 -119.61578613 107.12799316 -120.62524414 107.21606445 C-121.36637451 107.27882568 -122.10750488 107.34158691 -122.87109375 107.40625 C-122.49525146 108.1938269 -122.49525146 108.1938269 -122.11181641 108.99731445 C-116.69061432 120.43838651 -111.70515979 131.99202184 -107.24609375 143.84375 C-106.80861816 144.98561768 -106.37114258 146.12748535 -105.92041016 147.30395508 C-102.01994859 157.86659336 -102.01994859 157.86659336 -102.87109375 163.40625 C-108.35423128 174.11550299 -118.97020817 179.63228823 -129.87109375 183.40625 C-134.18578603 184.53492778 -138.49567833 184.65773375 -142.93359375 184.71875 C-143.64064453 184.74775391 -144.34769531 184.77675781 -145.07617188 184.80664062 C-148.38453977 184.84702446 -150.36745543 184.81697 -152.9777832 182.68823242 C-154.96996705 180.28707931 -155.87610282 178.40809669 -156.87890625 175.46875 C-157.22034668 174.50146973 -157.56178711 173.53418945 -157.91357422 172.53759766 C-158.27080566 171.50425293 -158.62803711 170.4709082 -158.99609375 169.40625 C-171.53581194 134.70136563 -193.15142096 103.46700441 -216.515625 75.12109375 C-219.30671201 71.59000673 -219.32388103 68.85865821 -218.87109375 64.40625 C-215.43518863 60.28572319 -211.89344266 58.19160777 -207.05859375 55.96875 C-202.85974539 54.00253179 -199.10219757 51.99795971 -195.55859375 48.96875 C-192.03237051 46.12964949 -189.40576622 45.81841626 -184.9453125 46.12890625 C-183.31047533 46.3475003 -181.68251789 46.61755237 -180.05859375 46.90625 C-163.67974222 49.47548161 -146.2828884 45.30546676 -132.62109375 36.03125 C-125.87199191 31.02350296 -119.98997965 26.13717036 -115.29296875 19.10546875 C-113.52311426 16.99039539 -112.53034884 16.21384257 -109.87109375 15.40625 C-105.13151014 15.75714722 -100.59915061 16.63620611 -95.9375 17.56201172 C-66.36639371 23.21172079 -36.98605038 18.05759891 -10.87109375 3.40625 C-10.154375 2.84164063 -9.43765625 2.27703125 -8.69921875 1.6953125 C-5.84740328 -0.31558302 -3.39324589 -0.13416458 0 0 Z " fill="#4766B0" transform="translate(481.87109375,292.59375)"/>
<path d="M0 0 C2.96550038 0.72287629 4.09102248 2.17240951 6.03515625 4.49609375 C6.86889648 7.23828125 6.86889648 7.23828125 7.34375 10.37109375 C7.53388672 11.52222656 7.72402344 12.67335938 7.91992188 13.859375 C8.19352539 15.65955078 8.19352539 15.65955078 8.47265625 17.49609375 C10.39312484 30.0727364 13.25879807 41.8773619 22.03515625 51.49609375 C22.67453125 52.20121094 23.31390625 52.90632813 23.97265625 53.6328125 C31.70393308 61.32382226 41.3333815 65.75277148 51.03515625 70.49609375 C51.15709351 69.4453064 51.15709351 69.4453064 51.28149414 68.37329102 C52.93987079 55.24842435 60.18130506 42.25209478 70.21484375 33.62109375 C72.11728697 32.1716132 74.0362543 30.80801166 76.03515625 29.49609375 C77.52015625 28.50609375 77.52015625 28.50609375 79.03515625 27.49609375 C83.26173634 27.57294066 85.33046635 27.84561076 88.47265625 30.74609375 C90.2122861 33.80784229 90.80775164 35.06233646 90.03515625 38.49609375 C87.8693324 41.08110931 85.61846308 43.04907356 82.9453125 45.09765625 C73.588683 52.61494833 68.84546038 62.75555625 67.2265625 74.58203125 C67.16339844 75.21367187 67.10023438 75.8453125 67.03515625 76.49609375 C68.10765625 76.72296875 69.18015625 76.94984375 70.28515625 77.18359375 C90.60372361 82.30802961 107.46456236 94.14020292 119.03515625 111.49609375 C119.9310144 111.31433594 119.9310144 111.31433594 120.8449707 111.12890625 C140.43624446 107.23275467 160.09389447 103.44863992 178.11328125 114.18359375 C180.81795238 116.03068623 182.50668988 117.5781125 184.03515625 120.49609375 C184.03515625 124.27519991 183.86805339 126.50302408 181.41015625 129.43359375 C178.03156185 130.94507019 175.70525011 130.93903611 172.03515625 130.49609375 C170.02179095 129.18302942 168.02284019 127.84771883 166.03515625 126.49609375 C153.14964991 121.6306121 138.06050469 124.84322462 125.03515625 127.49609375 C125.36128906 128.61242187 125.68742187 129.72875 126.0234375 130.87890625 C127.23551944 135.74221119 127.29954788 140.38168102 127.22265625 145.37109375 C127.21476074 146.25152344 127.20686523 147.13195312 127.19873047 148.0390625 C126.9832002 164.43150542 126.9832002 164.43150542 124.03515625 169.49609375 C121.35882599 171.57768395 119.91761957 171.49196966 116.47265625 171.37109375 C113.03515625 170.49609375 113.03515625 170.49609375 111.32983398 168.84741211 C109.60843061 165.72109948 109.75585651 163.55601002 109.8828125 160 C109.92438477 158.07704102 109.92438477 158.07704102 109.96679688 156.11523438 C110.04826312 153.4455243 110.14391428 150.77667593 110.24023438 148.10742188 C110.53611764 133.62357514 106.86671712 120.74476461 96.97265625 109.87109375 C86.34460492 100.00881904 73.12937668 95.39794779 59.61328125 91.07421875 C58.10776095 90.59081426 56.60255347 90.10643447 55.09765625 89.62109375 C54.35612305 89.38221436 53.61458984 89.14333496 52.85058594 88.8972168 C45.76135099 86.54105256 39.1091137 83.42636539 32.4140625 80.1328125 C29.15445765 78.46420896 29.15445765 78.46420896 26.03515625 77.49609375 C20.84299101 86.60758761 16.64486417 95.26329166 14.03515625 105.49609375 C13.69871094 106.64271484 13.69871094 106.64271484 13.35546875 107.8125 C9.4287942 122.41650191 12.74931214 137.11372643 19.6640625 150.25390625 C21.0794054 152.5684556 22.65141743 154.63078416 24.34765625 156.74609375 C26.32816019 159.29612085 27.02314531 160.44040667 27.72265625 163.68359375 C26.766792 167.59394749 25.25121377 169.11900776 22.03515625 171.49609375 C19.03515625 172.12109375 19.03515625 172.12109375 16.03515625 171.49609375 C13.9101052 169.86143909 12.65155972 168.57633473 11.03515625 166.49609375 C10.47699219 165.779375 9.91882813 165.06265625 9.34375 164.32421875 C-0.17570322 151.4123038 -6.17690612 135.69059377 -4.96484375 119.49609375 C-19.56564726 119.07082763 -28.85583473 119.76690853 -40.96484375 128.49609375 C-44.48308886 130.84159049 -45.82260069 131.07600778 -49.96484375 130.49609375 C-53.17155068 128.12591906 -54.66662446 126.5283913 -55.77734375 122.68359375 C-54.14406353 116.27610981 -49.1577982 112.83812935 -43.703125 109.5 C-31.21364412 102.66790887 -17.00850395 100.20872011 -2.96484375 103.49609375 C-2.76890625 102.67109375 -2.57296875 101.84609375 -2.37109375 100.99609375 C0.86602317 88.49412494 6.59967222 77.62890653 13.03515625 66.49609375 C12.52726563 65.97402344 12.019375 65.45195312 11.49609375 64.9140625 C4.8812584 57.84089586 -3.96484375 46.71049475 -3.96484375 36.49609375 C-4.80402344 37.25792969 -4.80402344 37.25792969 -5.66015625 38.03515625 C-15.75602505 46.70267062 -26.86515346 51.61478314 -40.31640625 51.62890625 C-41.4971875 51.63019531 -42.67796875 51.63148438 -43.89453125 51.6328125 C-45.72371094 51.62701172 -45.72371094 51.62701172 -47.58984375 51.62109375 C-48.81703125 51.62496094 -50.04421875 51.62882812 -51.30859375 51.6328125 C-53.07589844 51.63087891 -53.07589844 51.63087891 -54.87890625 51.62890625 C-55.95092285 51.62777832 -57.02293945 51.62665039 -58.12744141 51.62548828 C-60.58335989 51.51349062 -62.6236565 51.20684912 -64.96484375 50.49609375 C-65.02671875 51.54796875 -65.08859375 52.59984375 -65.15234375 53.68359375 C-67.06424398 68.30704685 -75.84642632 81.14787158 -86.96484375 90.49609375 C-94.14998184 95.71559128 -101.96547548 99.68487641 -109.96484375 103.49609375 C-110.61029078 111.8438753 -110.31005248 118.73230521 -104.96484375 125.49609375 C-102.1816523 127.85567 -99.34798343 129.90923257 -96.29296875 131.90234375 C-93.96484375 133.49609375 -93.96484375 133.49609375 -92.96484375 135.49609375 C-92.60964472 139.33224332 -92.41759781 141.64239009 -94.52734375 144.93359375 C-98.04599608 147.18914012 -99.82879698 147.1741342 -103.96484375 146.49609375 C-114.78310375 141.07739007 -121.74627301 132.66566769 -125.71484375 121.359375 C-127.04496387 116.65776986 -127.13735987 112.32654507 -126.96484375 107.49609375 C-128.03734375 107.65464844 -129.10984375 107.81320313 -130.21484375 107.9765625 C-134.7264621 108.54249705 -139.20370798 108.64226668 -143.74609375 108.73510742 C-158.32950512 109.06805697 -173.37675134 109.44409731 -184.96484375 119.49609375 C-185.66609375 120.25921875 -186.36734375 121.02234375 -187.08984375 121.80859375 C-189.95990373 124.39164773 -192.16423384 124.56277112 -195.96484375 124.49609375 C-199.28357395 122.16592148 -200.68567314 120.63815534 -201.65234375 116.68359375 C-200.18577622 109.88405339 -195.6700477 105.68022847 -190.08984375 101.80859375 C-176.36218027 93.59080068 -161.20770522 92.36840823 -145.56445312 91.97851562 C-125.75864169 91.33883981 -108.24720685 86.58115424 -92.96484375 73.49609375 C-87.55102875 67.18185214 -84.22373965 60.45382856 -81.96484375 52.49609375 C-81.63871094 51.68398437 -81.31257813 50.871875 -80.9765625 50.03515625 C-80.0897873 46.97355249 -79.96198679 45.55391208 -80.96484375 42.49609375 C-85.16552038 37.39412866 -90.75265528 33.49668838 -95.96484375 29.49609375 C-105.41514529 22.1077751 -105.41514529 22.1077751 -106.7109375 18.30859375 C-106.91384782 14.96364782 -106.14661235 12.77573775 -104.33984375 9.99609375 C-101.05977807 7.92447332 -99.80668261 7.69873097 -95.96484375 8.49609375 C-92.67017473 10.47566379 -89.86063628 12.98014424 -86.96484375 15.49609375 C-85.71890161 16.56918647 -84.47279577 17.64208915 -83.2265625 18.71484375 C-80.6145349 20.9688761 -78.01341072 23.2347181 -75.41796875 25.5078125 C-74.82177734 26.02263184 -74.22558594 26.53745117 -73.61132812 27.06787109 C-72.20944197 28.28392003 -70.82714681 29.52249425 -69.44921875 30.765625 C-62.87566146 35.34437639 -55.43676717 34.86191191 -47.71484375 34.87109375 C-46.11189453 34.90783203 -46.11189453 34.90783203 -44.4765625 34.9453125 C-35.13576228 34.97936159 -27.47688047 33.14325422 -19.96484375 27.49609375 C-19.30484375 27.49609375 -18.64484375 27.49609375 -17.96484375 27.49609375 C-14.39468012 20.40336867 -11.55617795 13.65209754 -9.7734375 5.87890625 C-7.981992 0.59976733 -5.39371096 0.1558876 0 0 Z " fill="#4867B0" transform="translate(270.96484375,97.50390625)"/>
<path d="M0 0 C-8.08063283 13.05332996 -18.68432561 22.37025592 -34 26 C-38.29215658 26.42362843 -42.58126842 26.38981123 -46.890625 26.3515625 C-51.25279151 26.43135823 -53.3530266 26.51282644 -56.92578125 29.203125 C-58.89867334 31.86337121 -60.47159979 34.40920768 -61.9375 37.375 C-68.8699101 50.51659167 -79.94772845 58.03616008 -93.875 62.8125 C-100.94689702 64.75617356 -107.9765461 64.26158202 -115.21484375 63.66015625 C-116.29548096 63.57556152 -116.29548096 63.57556152 -117.39794922 63.48925781 C-118.81895424 63.37321815 -120.23878635 63.24154433 -121.65673828 63.09277344 C-124.39765506 62.86068789 -126.46897193 62.73501383 -128.96484375 63.98046875 C-130.66101247 67.28959791 -130.6118375 70.42596375 -130 74 C-128.86402669 76.82089261 -127.30292969 79.30518909 -125.6875 81.875 C-119.41774419 92.45421801 -114.80418845 103.66508177 -110.20019531 115.046875 C-109.41419983 116.98084598 -108.61201345 118.90833392 -107.79199219 120.828125 C-107.42493164 121.69953125 -107.05787109 122.5709375 -106.6796875 123.46875 C-106.35468262 124.22607422 -106.02967773 124.98339844 -105.69482422 125.76367188 C-104.89156217 128.34901283 -104.70465341 130.30820564 -105 133 C-108.94652961 137.14385609 -113.37289377 139.78359567 -119 141 C-121.33287742 141.04612349 -123.66727632 141.05333544 -126 141 C-126.46148437 139.78828125 -126.92296875 138.5765625 -127.3984375 137.328125 C-140.55348196 103.30338288 -160.31636485 74.09582523 -182 45 C-180.3524116 43.64316249 -178.68083079 42.31543279 -177 41 C-175.78570312 39.88431641 -175.78570312 39.88431641 -174.546875 38.74609375 C-168.92995069 35.98093388 -163.40174532 36.80805876 -157.25 37.0625 C-135.13073291 37.49011084 -114.46119953 31.48273662 -98 16 C-96.43450477 14.31527831 -94.87197124 12.62779937 -93.3125 10.9375 C-89.47924067 7.01681546 -89.47924067 7.01681546 -85.4375 6.875 C-84.303125 7.24625 -83.16875 7.6175 -82 8 C-76.56351 8.81615512 -71.24995478 9.18126657 -65.7578125 9.23828125 C-64.60694656 9.25038887 -64.60694656 9.25038887 -63.43283081 9.26274109 C-61.8142923 9.2764867 -60.19572596 9.28725082 -58.57714844 9.29516602 C-56.9601968 9.30659608 -55.34328015 9.32690262 -53.7265625 9.35668945 C-38.28947712 9.63980813 -23.91715072 7.38298825 -9.5 1.6875 C-2.24961813 -1.12480906 -2.24961813 -1.12480906 0 0 Z " fill="#5880C0" transform="translate(466,319)"/>
</svg>
